<svg width="734" height="649" viewBox="0 0 734 649" fill="none" xmlns="http://www.w3.org/2000/svg">
<path fill-rule="evenodd" clip-rule="evenodd" d="M558.519 394.944C551.655 311.269 530.755 237.159 432.55 233.999C388.232 234.395 342.993 243.81 302.239 261.23C203.183 310.896 171.754 492.377 259.025 565.431C258.506 565.726 258.381 566.579 258.994 566.991C277.024 579.121 297.065 589.101 317.137 597.487C370.603 620.091 433.544 629.909 488.071 605.39C571.284 569.982 572.532 471.457 558.519 394.944Z" fill="white"/>
<path fill-rule="evenodd" clip-rule="evenodd" d="M722.311 355.943C725.731 352.863 728.281 348.823 729.571 344.293C730.751 340.163 730.831 335.653 729.581 331.533C728.241 327.113 725.351 323.593 726.001 318.993C726.071 318.543 726.161 318.073 726.301 317.603C728.801 308.943 734.951 302.693 732.751 293.093C732.131 290.383 730.961 287.943 729.331 286.023C729.511 283.943 729.671 281.843 729.801 279.743C733.411 271.293 733.281 261.253 729.431 252.933C728.961 248.673 728.251 244.453 727.251 240.303C727.711 236.633 727.071 232.593 725.891 229.383C723.818 223.735 721.256 218.169 718.476 212.695C718.803 211.198 718.656 209.616 717.83 208.209C716.328 205.652 714.343 203.404 712.314 201.207C710.879 198.644 709.434 196.102 708.001 193.593C707.337 192.44 706.604 191.161 705.796 189.806C707.998 185.72 709.174 181.738 706.845 176.933C705.97 175.128 703.564 173.797 701.583 173.915C699.418 174.044 697.233 174.141 695.036 174.224C690.93 169.266 686.277 164.815 681.291 162.253C676.241 157.973 671.121 153.773 666.141 149.483C664.731 148.263 663.311 147.043 661.901 145.823C661.891 145.793 661.881 145.753 661.871 145.723C660.831 141.933 659.661 138.193 658.491 134.433C657.761 132.103 657.541 129.663 655.271 128.393C650.531 125.743 643.241 125.323 637.801 124.873C637.261 124.393 636.721 123.923 636.181 123.443C638.651 116.863 638.211 109.873 635.101 103.283C634.041 101.043 630.361 100.033 628.341 101.513C623.681 104.933 618.151 106.143 612.681 105.643C604.641 99.4634 572.211 71.5174 567.2 68.5674C567.138 68.4614 567.088 68.3554 567.022 68.2504C564.205 63.7524 560.784 60.1404 556.938 57.2444C556.389 56.6714 555.84 56.0974 555.291 55.5234C555.774 52.0944 557.045 48.7834 559.091 46.0134C559.311 45.6934 559.561 45.3834 559.811 45.0834C563.391 40.8234 559.021 35.3434 554.021 37.5734C553.661 37.7334 553.301 37.8934 552.941 38.0634C549.097 39.7774 544.844 41.6404 540.415 43.2124C538.794 42.6054 537.142 42.0554 535.635 41.4494L519.499 34.9624C516.843 33.8944 514.035 32.9894 511.466 31.7344C510.57 25.7754 504.598 21.8674 498.396 22.0714C498.754 20.9274 499.288 19.8164 500.041 18.7634C500.261 18.4534 500.501 18.1534 500.751 17.8634C503.941 14.1534 499.681 7.27337 495.121 10.5734C494.801 10.8034 494.471 11.0334 494.151 11.2634C492.884 12.1524 491.587 12.9864 490.276 13.7944C488.177 12.8784 485.813 12.6694 483.339 13.6384C477.861 15.7834 472.811 17.9644 467.988 21.3264C467.792 21.4634 467.589 21.5784 467.391 21.7074C464.997 18.8154 461.196 16.8814 457.773 16.9024C457.703 16.9024 457.649 16.9014 457.587 16.9004C455.028 13.0014 450.337 10.7354 445.807 11.2864C446.113 5.69136 440.512 0.698364 435.413 0.0913645C429.455 -0.616636 424.085 2.84237 422.297 8.65437C421.799 10.2724 421.302 11.8914 420.804 13.5104C416.178 11.1754 411.296 9.38637 406.196 8.49337C394.583 6.45937 383.228 8.62537 372.037 11.8494C370.919 12.1714 369.802 12.5024 368.685 12.8324C367.089 10.9834 365.592 9.09037 364.161 7.32337C361.691 4.27337 355.761 6.71336 356.161 10.6334C356.439 13.3384 355.34 15.2844 353.571 16.6674C351.628 16.9514 349.75 17.0374 346.918 16.9804C343.175 16.9044 341.472 16.7874 337.558 15.2614C335.734 14.5514 333.463 12.6844 332.4 11.0084C328.325 4.58136 317.974 2.85037 313.044 8.97837C307.856 6.70737 301.306 9.83937 298.426 14.2554C296.919 16.5644 293.775 17.8554 289.817 18.9654C286.846 19.7974 283.808 20.4274 280.756 20.9784C279.396 19.1334 276.532 17.8964 274.431 19.4434C273.008 20.4944 271.626 21.5734 270.263 22.6794C259.753 24.1274 249.298 24.1794 239.277 20.0814C230.793 16.6114 223.003 26.0884 224.403 34.0444C221.946 35.3234 219.28 36.1744 216.853 37.5144C211.558 40.4404 207.21 45.0654 204.56 50.4994C204.085 51.4724 203.656 52.4604 203.247 53.4534C201.268 55.0644 199.311 56.7184 197.401 58.4634C194.221 56.8334 191.051 55.2034 187.871 53.5734C185.491 52.3534 181.481 53.2034 181.011 56.3634C180.241 61.5634 178.371 65.8734 175.701 69.4834C167.021 74.0434 158.671 79.1634 150.681 84.8534C141.491 87.7334 131.721 89.4134 123.691 91.3034C120.941 91.9534 119.441 95.5434 120.991 97.9334C122.631 100.463 124.271 102.993 125.901 105.523C121.331 109.983 117.041 114.643 112.991 119.463C101.721 132.863 92.2912 147.553 83.8512 163.113C80.5112 164.463 77.1712 165.803 73.8312 167.153C70.6112 168.453 69.1612 172.193 71.7712 174.943C73.0112 176.253 74.1212 177.633 75.0712 179.083C70.3412 186.913 64.7712 194.053 56.9812 198.733C54.6112 200.153 52.8312 202.383 51.8812 204.913C51.0712 205.453 50.2712 206.033 49.4812 206.623C47.2812 208.283 45.9512 211.903 48.5312 214.053C50.3412 215.573 52.0412 217.373 53.4812 219.363C53.7912 220.493 54.1112 221.633 54.4312 222.763C47.1912 229.423 41.1712 237.163 36.6512 245.843C35.5812 245.673 34.4812 245.783 33.5912 246.443C25.5112 252.413 25.2712 261.923 28.5212 270.423C26.5612 283.233 27.8212 296.363 31.6012 308.773C26.6312 313.733 23.6412 320.893 22.4212 327.793C20.2712 339.913 20.1212 358.553 19.5612 370.923C14.1412 376.153 10.2812 382.923 8.13116 390.203C6.32116 391.103 4.51116 392.003 2.70116 392.903C1.09116 393.703 -0.0888345 395.813 0.00525452 397.593C0.471166 406.203 4.02116 413.003 8.73116 419.163C10.4012 423.913 12.8712 428.293 16.1112 432.493C18.3512 435.373 20.5412 438.133 22.4712 441.243C22.6712 441.553 22.7912 441.843 22.8812 442.043C22.1212 442.863 21.4912 444.223 20.9412 445.193C16.3212 453.333 16.2512 462.873 22.8112 469.963C20.3412 471.983 20.2612 476.063 22.4412 478.563C36.6312 494.773 48.4612 514.483 68.1512 523.093C68.2412 523.243 68.3212 523.393 68.3912 523.543C64.4012 533.143 63.8612 538.133 67.1212 548.053C67.1412 548.143 67.1712 548.223 67.2012 548.313C68.9412 553.513 72.1412 561.843 77.9112 563.463C79.7312 563.973 81.5212 564.203 83.2912 564.193C87.8712 568.603 92.4412 573.023 97.0112 577.443C97.4112 579.633 97.6612 581.843 97.7412 584.073C97.8712 587.803 101.381 590.823 105.161 589.723C106.491 589.333 113.851 582.183 115.201 582.223C115.881 582.903 116.541 583.583 117.201 584.273C119.631 586.823 123.001 590.843 123.281 593.513C123.821 598.543 127.121 604.303 132.451 605.323C134.451 607.353 137.651 607.963 140.101 605.313C140.261 605.143 140.421 604.973 140.591 604.823C140.851 604.793 141.101 604.763 141.361 604.733C142.541 608.253 143.721 611.773 144.911 615.283C147.241 622.203 156.141 626.653 162.461 622.613C163.481 623.223 164.481 623.873 165.481 624.523C167.001 625.493 168.541 626.483 170.121 627.413C170.211 627.673 170.301 627.933 170.381 628.183C171.401 631.293 175.641 632.963 178.251 631.173C179.061 631.433 179.891 631.643 180.731 631.813C185.141 632.683 189.581 632.443 193.841 630.973C196.891 629.933 199.801 627.943 203.081 627.673C203.286 627.656 203.497 627.67 203.705 627.664C206.381 633.146 212.496 637.87 217.315 639.475C223.627 641.578 230.087 640.826 235.835 638.251C237.386 641.352 239.334 644.288 241.661 647.003C242.951 648.503 245.281 648.183 246.611 647.003C249.137 644.764 251.647 642.514 254.153 640.261C255.967 639.562 257.798 638.723 259.708 637.943C265.682 635.503 272.231 634.492 277.756 630.966C280.379 629.292 282.846 627.156 284.878 624.681C288.706 622.471 292.223 619.718 295.391 616.563C296.971 616.573 298.621 616.203 300.221 615.393C306.911 611.993 310.431 605.073 310.741 597.993C316.161 585.243 319.361 571.643 320.241 557.723C320.521 553.153 320.571 548.543 320.221 543.973C319.981 540.753 319.171 538.603 317.951 535.693C317.541 534.743 317.171 533.873 316.881 532.913C316.951 529.833 316.991 526.753 317.031 523.683C317.861 521.093 319.341 518.683 321.401 516.653C324.591 513.513 326.051 506.993 323.151 503.113C321.261 500.603 319.381 498.093 317.491 495.583C318.021 484.813 320.601 467.673 314.881 465.873C315.111 464.273 315.601 462.693 315.881 461.103C317.221 453.463 316.421 446.633 312.361 439.953C311.511 438.563 310.791 437.333 310.201 436.133C309.831 433.933 309.461 431.733 309.091 429.533C308.521 426.143 307.961 422.723 307.481 419.283C307.231 414.903 307.001 410.523 306.751 406.133C306.521 402.093 306.261 398.053 305.991 394.003C306.101 392.193 306.261 390.383 306.491 388.573C307.861 377.783 312.271 373.793 319.911 366.293C321.111 366.103 322.301 365.893 323.471 365.653C328.921 364.523 334.621 362.773 340.231 363.403C346.321 364.083 351.771 366.713 357.691 363.353C359.431 362.353 363.261 359.593 363.591 357.403C363.611 357.263 363.641 357.143 363.681 357.053C364.091 356.993 364.621 356.943 364.951 356.933C369.651 356.773 374.141 358.623 378.881 358.113C384.491 357.513 389.511 355.023 392.811 351.333C397.041 352.373 401.361 352.843 405.751 352.263C409.431 351.783 412.731 350.583 415.991 348.803C418.361 347.523 417.611 347.153 420.191 348.193C426.061 350.573 431.371 353.713 437.981 352.083C441.411 351.243 444.371 349.393 446.861 346.903C447.451 346.323 448.451 345.453 449.121 344.633C452.261 346.223 460.161 349.813 461.461 350.133C465.141 351.033 469.041 350.893 472.621 349.693C475.251 348.813 478.471 346.413 480.781 345.923C483.771 345.283 490.411 349.443 493.981 350.873C500.241 353.383 506.871 354.003 513.211 351.413C515.391 350.523 519.631 346.973 521.261 347.003C523.911 350.273 531.311 368.163 533.531 374.693C542.521 401.093 544.851 483.523 540.701 504.553C540.541 505.173 540.371 505.783 540.201 506.403C535.101 524.693 529.791 543.293 521.261 560.333C513.211 576.393 502.081 590.853 486.111 599.623C469.551 608.723 450.111 611.113 431.491 609.883C419.501 609.103 407.711 606.693 396.111 603.673C390.051 602.103 384.041 600.353 378.061 598.533C375.451 597.743 372.801 597.003 370.241 596.083C365.721 594.453 363.351 594.323 359.021 596.413C355.081 598.313 354.071 603.923 356.121 607.453C359.461 613.213 365.581 613.613 371.491 615.293C377.511 617.003 383.551 618.643 389.631 620.113C401.281 622.913 413.121 625.063 425.061 626.053C446.441 627.843 468.471 625.083 487.931 615.753C490.131 614.693 492.251 613.563 494.301 612.343C493.541 613.403 492.771 614.463 491.991 615.513C489.831 618.423 491.431 623.373 494.461 624.963C495.421 625.463 496.381 625.943 497.351 626.413C497.481 626.723 497.621 627.033 497.781 627.343C500.551 632.903 506.351 636.183 512.261 637.603C519.281 639.283 527.141 638.093 534.281 637.883C540.901 637.683 547.521 637.483 554.131 637.283C555.691 637.243 557.251 637.193 558.811 637.143C566.671 636.903 574.521 636.673 582.371 636.433C589.371 636.223 589.041 636.763 595.611 633.963C598.541 632.703 600.941 630.923 602.961 628.553C604.221 627.993 605.441 627.353 606.611 626.623C610.371 624.283 613.711 621.143 616.791 617.683C622.021 619.333 629.351 617.803 630.371 611.233C632.011 600.723 645.671 596.233 652.051 588.633C657.201 582.503 660.881 574.473 660.691 566.763C673.671 560.483 680.731 543.933 682.381 529.893C683.151 523.383 683.031 516.413 684.141 509.793C684.631 509.263 685.071 508.703 685.441 508.103C688.701 502.833 691.541 497.403 694.041 491.843C697.441 489.393 701.531 487.883 705.811 487.633C716.331 487.023 718.311 472.833 708.281 469.413C708.231 469.393 708.191 469.383 708.141 469.363C710.861 462.563 710.631 454.513 707.331 448.073C707.471 447.373 707.601 446.683 707.731 445.983C713.361 439.933 716.591 431.523 716.231 423.333C718.801 421.523 721.681 420.123 724.831 419.253C729.701 417.913 729.731 411.973 726.131 409.313C724.681 408.243 723.481 406.993 722.481 405.613C724.971 398.133 723.991 389.483 718.901 383.343C722.131 379.203 725.361 375.063 728.591 370.923C730.731 368.183 731.861 363.533 728.591 360.933C726.501 359.263 724.411 357.603 722.311 355.943Z" fill="black"/>
</svg>
