<svg width="1166" height="1156" viewBox="0 0 1166 1156" fill="none" xmlns="http://www.w3.org/2000/svg">
<g id="One">
<g id="body/mono/Whatever">
<path id="&#240;&#159;&#142;&#168; Background" fill-rule="evenodd" clip-rule="evenodd" d="M1105.74 753.357C1115.98 748.01 1125.99 742.201 1135.83 736.155C1142.76 732.008 1136.62 721.562 1129.51 725.336C1125.88 727.267 1122.26 729.217 1118.62 731.135C1121.48 728.672 1124.14 725.99 1126.51 723.067L1126.35 722.904C1135.51 714.693 1123.74 699.201 1113.32 705.946C1104.13 712.608 1094.85 719.406 1084.3 723.793C1062.45 733.059 1038.35 734.592 1014.89 734.86C1006.31 734.215 998.114 735.702 989.786 737.359C993.051 724.261 1001.22 714.37 1005.56 701.684C1008.75 688.876 990.266 680.151 983.714 692.463C982.106 695.486 980.573 698.544 979.074 701.618C964.912 714.499 941.264 713.364 926.981 727.195C918.845 734.416 914.864 744.213 913.291 754.047C912.223 760.724 913.883 767.418 909.846 773.332C890.327 800.94 859.485 844.578 843.822 874.961C832.732 802.763 803.121 713.463 772.53 647.446C762.414 626.333 750.841 605.703 735.649 587.807C737.371 581.839 731.293 571.245 727.428 574.506C715.531 559.973 694.501 556.21 677.591 548.985C654.764 539.224 635.825 518.936 626.515 495.876C614.553 451.964 585.106 446.386 544.267 448.327C505.183 448.278 476.266 464.995 467.738 504.781C450.413 534.978 409.507 529.984 380.078 537.979C358.51 542.906 337.579 550.523 317.687 560.194C295.558 539.203 216.303 627.298 209.099 649.97C213.34 650.792 217.555 651.781 221.732 652.987C225.452 654.063 223.89 659.682 220.138 658.782C215.469 657.661 210.77 656.889 206.049 656.353C205.905 656.804 205.779 657.253 205.685 657.697C205.155 657.661 204.626 657.616 204.096 657.58C205.271 658.191 206.402 658.901 207.504 659.817C210.168 662.029 206.7 666.298 203.869 664.535C201.202 662.54 197.709 662.855 194.51 662.185C194.32 668.763 170.847 661.404 167.201 659.224C150.996 657.197 134.325 659.372 119.197 651.557C99.0679 647.318 78.7879 642.63 58.8849 637.232C53.6159 639.286 48.6639 646.636 52.8489 652.03C55.2029 654.484 52.1769 658.492 49.2129 656.747C39.2719 650.896 31.5839 641.762 25.0659 631.922C21.9979 628.827 16.5519 629.493 12.4299 628.208C11.8789 629.198 11.5539 630.302 11.5589 631.434C-5.92612 634.312 6.54688 653.409 15.3369 659.359C10.6739 662.395 10.4969 668.341 10.9049 673.306C9.91688 675.074 9.58688 677.266 10.4469 679.248C13.7349 686.825 20.8459 693.206 26.2529 699.345C32.2229 706.124 37.5459 712.941 44.8099 718.437C72.4979 739.542 105.911 751.342 140.189 755.957C152.36 757.826 169.867 760.687 177.403 770.979C175.554 783.193 172.159 794.907 169.079 806.817C164.772 822.627 165.065 839.178 165.008 855.296C164.406 854.812 163.25 854.912 163.078 855.834C162.076 862.515 161.331 869.347 157.27 874.961C153.71 885.4 151.341 896.535 150.01 907.503C144.678 959.498 143.405 1013.03 155.427 1064.21C160.066 1083.2 167.611 1101.25 177.891 1117.86C180.956 1122.82 185.884 1124.27 190.309 1123.3C205.119 1130.99 223.776 1133.46 239.739 1131.5C294.16 1116.1 275.198 1153.2 351.501 1141.84C483.208 1125.06 616.312 1158.03 747.739 1138.67C750.976 1163.67 793.35 1156.5 808.069 1145.93C852.203 1113.12 874.117 1009.25 896.266 956.552C911.491 915.018 936.985 841.454 970.372 813.584C980.383 805.754 992.484 801.632 1004.59 798.304C1049.78 786.66 1095.14 775.648 1140.42 764.327C1148.09 762.437 1146.71 749.342 1138.5 750.182C1127.61 751.297 1116.67 752.306 1105.74 753.357Z" fill="white"/>
<path id="Vector 8" d="M486.5 474L441.5 537.5L444.5 525.5L418 531.5L367.5 548.5L553.5 695L688.5 622.5L669.5 545L661.5 540L653.5 533.5L644 524L637 515.5L630.5 505L628.5 494L486.5 474Z" fill="#C68642"/>
<g id="Vector 9">
<path d="M151.5 920L156 881.5L169.5 764.5L106.5 745.5L77.5 735.5L34.5 708.5L11 673L15 661.5L4.5 638L9 629L12 628L20 629L25.5 632L27 634.5L35 645L40.5 650.5L48.5 656L52 645L55 639.5L59 637L90 645L108.5 649L150.5 660.5L195 668.5L273 640.5L322 928L280.5 1135L204.5 1132.5L170 1113L152 1077L147 984L151.5 920Z" fill="#C68642"/>
<path d="M760 1154L753 1149.5L783.5 899L806 873L847.5 866.5L886.5 807L913.5 767L912.5 749.5L924.5 730L947 717.5L971 706.5L985.5 690L1001.5 687L1006.5 695.5L992.5 726.5L990 732.5L1000 736L1056.5 732.5L1106 710L1122.5 704L1127 707.5L1129.5 713V718.5L1127 724.5H1136L1139.5 730C1130.83 737.667 1113.2 753.1 1112 753.5C1110.8 753.9 1138.5 751.333 1152.5 750L1136 767.5L1099 782L995.5 799.5L953 842L898 970.5L864 1061L811.5 1144L799.5 1151.5L779 1156H767.5L760 1154Z" fill="#C68642"/>
</g>
<path id="&#240;&#159;&#150;&#141; Ink" fill-rule="evenodd" clip-rule="evenodd" d="M99.7948 745.568C96.7348 745.189 93.7348 744.099 90.7548 743.239C86.2048 741.909 81.7448 740.359 77.3548 738.589C68.2948 734.96 59.5048 730.669 51.2648 725.419C37.9548 716.929 26.1948 706.049 17.3248 692.949L16.7159 692.035C11.652 684.322 2.31124 667.195 12.7848 661.339C6.03454 655.699 -0.345455 645.569 0.0145451 637.749C0.524545 626.689 14.0845 626.84 21.0945 631.529C25.6845 634.599 29.1245 638.899 32.5745 643.13C36.3945 647.829 40.4745 652.309 44.7145 656.619C45.8395 657.759 46.9758 658.876 48.1317 659.975L49.2944 661.069C49.1145 660.639 48.9545 660.199 48.8145 659.748C46.4745 652.459 49.2645 642.969 56.5545 639.629C61.0158 637.584 65.6489 638.832 69.972 640.569L70.6345 640.839C76.4545 643.248 82.3445 645.379 88.4045 647.089C113.105 654.059 138.885 655.219 164.195 658.699C173.945 660.049 183.875 661.748 193.575 664.248C197.274 648.538 206.344 633.479 216.184 621.089C263.304 561.818 341.014 542.229 412.104 529.549C418.584 528.399 423.955 536.979 427.725 534.949C434.875 531.109 441.165 525.669 446.685 519.759C458.455 507.149 466.805 492.319 476.615 478.269C481.465 471.329 492.625 477.539 488.125 484.989L485.92 488.63C476.843 503.544 466.792 518.913 453.775 530.479C446.855 536.619 439.175 541.469 430.395 544.498C423.745 546.789 414.415 548.719 407.135 546.498L406.261 545.225C406.55 545.651 406.841 546.075 407.135 546.499C426.134 574.029 449.974 597.329 475.094 619.319C500.45 641.502 527.803 661.368 555.321 680.791L557.614 682.409C602.444 649.71 640.314 607.059 666.884 558.33C661.315 557.659 655.805 554.09 651.045 551.429C645.315 548.21 639.925 544.369 635.725 539.249C626.575 528.099 627.765 513.729 626.115 500.199C626.015 499.359 627.125 499.149 627.635 499.569C632.595 503.689 634.335 510.439 636.405 516.269C638.685 522.679 641.265 527.96 646.495 532.469C651.365 536.67 657.305 539.759 663.075 542.509C666.05 543.92 680.822 547.546 682.504 550.549C708.025 544.559 732.885 554.909 751.795 572.369C770.065 589.239 783.475 611.169 795.315 632.819C807.945 655.919 818.295 679.998 827.215 704.748C836.255 729.869 843.185 755.539 846.995 781.979C850.211 804.27 852.183 826.912 853.459 849.452L853.615 852.269C872.494 822.639 891.844 793.319 911.594 764.259C907.104 752.269 912.074 740.029 920.484 730.769C929.804 720.519 942.694 715.759 955.024 710.219L956.645 709.486C962.588 706.775 968.511 703.79 973.644 699.729C978.584 695.809 982.214 690.409 987.414 686.799C994.974 681.539 1008.69 682.659 1009.04 694.149C1009.22 700.46 1006.51 707.379 1004.03 713.049C1001.22 719.46 997.434 725.269 992.934 730.609C992.726 730.858 992.499 731.054 992.268 731.21L992.095 731.319C998.315 732.349 1004.58 733.179 1010.97 733.469C1023.86 734.059 1036.89 733.109 1049.51 730.389C1062.43 727.609 1074.95 723.09 1086.57 716.789C1096.5 711.409 1105.7 704.449 1116.98 702.809C1118.02 702.649 1119.07 702.549 1120.15 702.489C1121.95 702.389 1123.75 704.509 1123.04 706.288C1122.65 707.269 1122.24 708.239 1121.79 709.219C1117.89 717.809 1111.91 726.142 1104.45 732.466L1103.87 732.949C1106.5 732.039 1109.09 731.019 1111.64 729.869C1126.63 723.119 1140.23 712.919 1156.3 708.819C1157.06 708.619 1157.83 708.439 1158.6 708.269C1163.57 707.199 1166.19 712.599 1163.27 716.299C1162.8 716.899 1162.33 717.489 1161.84 718.079C1154.67 726.979 1146.76 735.239 1138.04 742.659C1135.05 745.199 1131.97 747.659 1128.83 750.01C1127.51 751.006 1126.18 751.98 1124.84 752.939L1124.17 753.409C1125.74 752.3 1127.29 751.17 1128.83 750.01C1138.67 747.029 1148.37 743.499 1157.86 739.59C1161.63 738.039 1164.56 741.859 1164.96 744.999C1166.3 755.52 1154.62 763.13 1147.02 768.189C1139.4 773.27 1131.01 777.13 1122.42 780.229C1105.91 786.197 1088.56 788.908 1071.24 791.337L1062.83 792.509C1029.53 797.164 994.756 802.731 970.864 828.64C957.474 843.159 948.414 861.199 940.124 878.949C931.844 896.68 924.574 914.88 917.674 933.18C910.524 952.119 904.294 971.409 897.674 990.539C891.594 1008.1 884.332 1025.44 877.139 1042.61L876.004 1045.32C860.734 1081.8 842.494 1116.16 817.074 1146.62C812.884 1151.65 806.114 1144.51 809.984 1139.53C836.574 1105.25 855.074 1064.8 870.344 1024.45C877.294 1006.09 883.114 987.289 889.794 968.829L893.769 957.862C899.077 943.244 904.43 928.644 910.014 914.14C917.084 895.789 924.854 877.659 933.744 860.119L934.688 858.272C943.391 841.351 953.732 824.674 967.964 811.869C993.582 788.81 1027.67 783.278 1060.63 778.897L1071 777.53C1084.93 775.679 1098.9 773.634 1112.45 769.909C1120.27 767.77 1127.91 765.029 1135.09 761.249C1137.95 759.749 1140.74 758.1 1143.44 756.3C1135.74 758.56 1127.93 760.409 1119.98 761.859C1116.09 762.569 1112.24 763.1 1108.4 763.47C1098.51 764.448 1088.7 764.408 1078.57 763.879C1077.71 763.828 1077.43 762.479 1078.35 762.309C1085.41 761.055 1092.47 759.486 1099.51 757.784L1101.61 757.269C1101.65 756.1 1102.11 754.859 1103.07 753.68C1106.57 749.42 1113.22 747.239 1117.83 744.229C1122.66 741.079 1127.34 737.68 1131.8 734.039C1135.88 730.71 1139.8 727.189 1143.57 723.51L1144.7 722.399C1144.33 722.77 1143.95 723.141 1143.57 723.509C1133.39 728.21 1123.74 734.239 1113.11 737.96C1104.66 740.929 1095.8 742.929 1086.86 743.639L1086.31 743.683L1085.75 743.719C1076.42 744.389 1067.03 744.119 1057.84 746.139C1056.81 746.369 1056.49 744.989 1057.41 744.599C1065.44 741.259 1073.79 739.969 1082.23 738.409C1082.41 737.749 1082.87 737.159 1083.67 736.779L1085.83 735.748C1092.26 732.659 1098.26 729.542 1103.6 724.529C1108.32 720.099 1112.25 714.92 1115.2 709.179C1103.39 711.769 1093.02 720.719 1082.28 725.749C1070.58 731.239 1058.2 735.179 1045.48 737.42L1044.04 737.668C1020.26 741.633 991.68 741.128 970.385 728.769C969.705 728.369 970.195 727.46 970.895 727.569C976.935 728.559 982.915 729.729 988.895 730.769C987.724 729.699 987.204 727.779 988.554 726.239C993.925 720.084 998.173 713.049 1000.89 705.351L1001.41 703.846C1002.66 700.275 1004.77 694.73 1002.61 691.509C1000.55 688.439 995.704 688.859 992.804 690.159C986.774 692.879 982.764 699.67 977.684 703.769C972.144 708.249 965.844 711.569 959.394 714.539L958.032 715.158C946.876 720.176 934.956 724.4 926.184 733.259C921.464 738.019 917.404 743.969 916.044 750.639C915.424 753.699 915.424 756.849 916.244 759.879C916.894 762.249 918.254 763.71 917.474 766.119C916.454 769.229 912.844 772.949 910.984 775.719C908.824 778.92 906.674 782.129 904.524 785.339C900.234 791.759 895.964 798.199 891.694 804.629C883.154 817.509 874.704 830.449 866.324 843.429C863.598 847.656 860.88 851.887 858.171 856.122L854.115 862.479L851.971 865.83L848.315 871.578C848.445 872.109 848.435 872.669 848.265 873.158C847.641 874.934 846.474 876.147 845.023 877.027L844.764 877.179C823.424 910.909 802.424 944.859 781.214 978.67C780.084 988.989 779.024 999.319 778.104 1009.65C776.014 1033.03 774.584 1056.47 774.124 1079.94C773.904 1091.3 774.814 1102.73 775.304 1114.08C775.544 1119.5 775.873 1124.91 776.302 1130.32L776.617 1134.15C777.04 1139.42 777.279 1144.65 775.384 1149.67C773.704 1154.08 768.584 1155.07 765.554 1151.71C726.025 1150.12 686.465 1148.91 646.905 1148.16C576.095 1146.8 505.255 1147.01 434.435 1148.38C398.865 1149.07 363.285 1150.04 327.725 1151.24C310.205 1151.82 292.675 1152.64 275.145 1152.88C265.7 1153.01 250.835 1149.57 250.073 1138.94L250.055 1138.62C248.875 1138.94 247.655 1139.2 246.405 1139.39C245.848 1139.47 245.314 1139.45 244.82 1139.33L244.575 1139.27C230.496 1143.56 212.687 1137.44 199.309 1133.87L198.205 1133.58C185.435 1130.25 175.175 1125.49 166.805 1114.91C152.155 1096.38 147.155 1071.5 144.555 1048.57C142.115 1026.99 141.975 1005.01 144.945 983.469C143.195 965.92 144.905 947.81 146.895 930.359C147.875 921.729 149.025 913.109 150.405 904.529C151.175 899.739 152.185 894.999 153.215 890.269C153.626 888.379 153.968 886.344 154.49 884.377L154.725 883.539C153.125 883.749 151.375 883.399 149.685 882.47C145.665 880.26 144.495 875.789 144.425 871.51C144.205 858.609 145.745 845.34 147.105 832.52C148.475 819.72 150.355 806.869 152.815 794.229L153.451 790.97C155.315 781.514 157.448 771.753 161.205 762.869C147.095 760.469 133.025 757.919 119.335 753.578C112.655 751.448 106.075 748.799 99.7948 745.568ZM836.254 879.819C836.035 879.869 835.825 879.929 835.615 879.989C829.975 881.569 824.275 882.909 818.595 884.349C808.775 886.819 799.175 889.579 790.045 893.869C788.132 918.009 785.297 942.071 782.601 966.145L782.064 970.96C786.204 963.279 790.444 955.659 794.874 948.13C808.364 925.179 822.164 902.409 836.254 879.819ZM158.165 882.21C158.195 885.079 157.595 888.06 157.275 890.819C156.755 895.3 156.335 899.8 155.805 904.279C154.725 913.279 153.805 922.289 153.135 931.329C152.705 937.1 152.425 942.89 152.175 948.68C157.845 927.488 165.355 906.759 172.495 885.998C171.301 885.873 170.081 885.581 168.823 885.247L166.704 884.676C165.455 884.355 161.402 883.358 158.165 882.21ZM854.115 862.479L854.155 863.429C854.305 866.799 852.285 868.699 849.835 869.189C851.255 866.949 852.685 864.709 854.115 862.479ZM205.315 702.76C211.285 703.289 217.135 704.56 222.715 706.76L223.253 706.97C227.38 708.563 233.415 710.564 234.765 714.97C235.145 716.22 234.125 717.249 232.955 717.35C228.475 717.71 223.195 712.909 219.045 711.289C214.425 709.489 209.585 708.149 204.685 707.439C193.675 705.829 182.195 707.05 171.835 711.06C171.225 711.3 170.845 710.329 171.395 710.039C181.835 704.359 193.445 701.71 205.315 702.76ZM78.8048 731.359C78.1144 730.749 77.4244 730.109 76.7444 729.47C71.383 724.398 66.6353 718.478 63.1199 711.974L62.1948 710.213C59.3316 704.67 55.8158 696.773 62.5444 692.779C66.5644 690.39 71.4044 690.989 75.8844 692.439C76.1744 692.529 76.4644 692.63 76.7544 692.729C78.7544 693.43 80.6844 694.269 82.4044 695.069C89.8744 698.499 96.4644 703.489 103.364 707.89C110.841 712.66 118.223 715.71 126.852 717.495L127.664 717.659C135.764 719.26 144.544 720.289 150.194 726.949C151.614 728.63 150.314 731.779 147.864 730.949C132.244 725.68 115.714 724.519 101.374 715.869C95.4344 712.289 89.8144 708.18 83.7444 704.789C80.5244 702.987 77.1999 701.412 73.657 700.332L71.7215 699.762C70.5878 699.431 69.2344 699.104 68.3244 699.43C66.5922 700.03 67.145 700.957 67.681 702.575L67.7344 702.739C71.9444 715.76 83.9444 726.659 95.0644 733.869C97.6144 735.529 100.224 737.05 102.884 738.46C120.89 748.057 141.037 752.523 160.824 757.826C168.451 759.955 173.528 761.419 176.055 762.219C180.275 761.868 185.085 763.359 188.265 765.139C191.355 766.868 193.845 769.189 195.725 771.919C195.725 771.919 197.535 773.429 197.865 775.769C198.815 777.939 199.455 780.278 199.775 782.719C199.955 784.149 199.595 785.248 198.915 786.028C200.96 817.421 192.481 848.637 182.921 878.472L181.973 881.413L181.365 883.278C171.055 914.908 159.225 946.309 153.945 979.288C150.415 1001.32 150.525 1024.12 153.115 1046.25L153.297 1047.77C155.849 1068.7 160.759 1092.17 174.065 1109.01C180.851 1117.6 188.892 1121.42 199.172 1124.19L199.735 1124.34C209.035 1126.79 218.635 1130.26 228.225 1131.31C237.125 1132.28 244.585 1128.97 252.595 1125.87L252.605 1125.86C269.475 1110.93 277.135 1089.19 282.795 1067.25C297.465 1010.47 295.645 951.529 287.325 893.919C282.985 863.819 277.085 833.979 271.205 804.149C268.265 789.239 265.095 774.359 262.465 759.399L260.903 750.595C260.041 745.703 259.207 740.808 258.495 735.889C257.535 729.279 257.245 722.779 256.915 716.129C248.835 702.739 237.105 691.709 223.515 683.799C213.785 678.129 203.485 674.199 192.855 671.349C162.465 663.159 129.335 663.739 98.7545 657.439C88.4815 655.325 78.73 652.187 68.9836 648.426L67.6545 647.909C63.1845 646.169 58.6245 645.199 56.4045 650.469C54.8245 654.219 55.7645 658.119 58.1345 661.269C63.9445 668.989 75.6245 672.569 84.4145 675.349C89.7045 677.029 95.1045 678.359 100.565 679.349C106.025 680.339 111.505 680.589 116.745 682.519C118.765 683.259 119.165 686.469 116.745 687.038C110.105 688.589 103.425 687.259 96.8245 685.969C89.5745 684.538 82.4345 682.509 75.4945 679.939C74.2145 679.467 72.8897 678.969 71.5406 678.441L70.5245 678.039C71.5745 678.8 72.6245 679.55 73.6845 680.3C73.9645 680.499 73.7945 681.029 73.4245 680.899C57.1065 674.811 42.259 663.827 30.7569 650.831L30.1845 650.18C26.1345 645.539 16.9045 631.499 9.12454 635.409C1.81894 639.076 14.2724 653.212 19.0052 658.992L19.5547 659.669C24.9347 659.809 30.1447 663.158 34.5047 665.858C42.0747 670.549 49.9847 674.589 58.0447 678.368C74.0647 685.898 91.0747 691.209 106.925 699.118C107.135 699.229 106.975 699.498 106.775 699.469C96.6847 697.858 86.7047 695.288 76.9547 692.099L76.5197 691.963L76.0847 691.818C69.9947 689.818 63.9847 687.559 58.0747 685.148C51.5047 682.469 45.0847 679.459 38.8547 676.049C33.2147 672.969 26.9547 667.419 20.4147 666.599C19.7147 666.509 19.0947 666.498 18.5547 666.549C11.0448 667.179 17.2548 679.619 19.3548 683.339C22.7848 689.449 26.9248 695.089 31.6748 700.239C41.3048 710.699 52.9748 718.989 65.6048 725.439C69.9148 727.639 74.3248 729.579 78.8048 731.359Z" fill="black"/>
</g>
<g id="head/mono/Afro">
<path id="&#240;&#159;&#142;&#168; Background_2" fill-rule="evenodd" clip-rule="evenodd" d="M520.396 74.6729C671.965 67.2191 740.362 173.937 744.786 221.603C747.857 254.69 728.308 292.828 728.308 322.394C728.308 337.486 746.786 369.886 738.184 391.883C719.037 440.842 678.497 495.177 626.837 495.177C575.177 495.177 507.944 509.463 450.862 427.732C445.506 420.063 377.762 376.477 371.181 335.061C354.787 231.896 412.244 79.9914 520.396 74.6729Z" fill="white"/>
<path id="Vector 10" d="M761.5 184.5L523 147.5H370.5L390.5 364.5L480.5 461L535 544.5L626 494L703 461L735 375L761.5 184.5Z" fill="#C68642"/>
<path id="&#240;&#159;&#150;&#141; Ink_2" fill-rule="evenodd" clip-rule="evenodd" d="M513.25 8.25798C518.67 2.05798 527.82 -0.422021 535.95 0.0579795C547.76 0.757979 558.031 8.04798 569.781 8.58798C582.1 9.15798 593.99 4.88798 606.34 6.86798C613.91 8.08798 621.41 11.598 626.26 17.518C643.06 12.708 661.3 19.078 672 32.988C685.2 30.938 699.56 39.679 703.6 52.398C720.37 52.938 736.2 66.408 738.07 83.288C744.771 85.058 750.59 89.679 754.16 95.788C758.31 102.868 759 110.988 758.25 118.968C766.14 122.998 770.15 131.658 771.2 140.818C778.41 146.198 781.54 155.868 780.07 164.998C785.59 168.108 788.441 175.348 788.41 181.808C788.38 187.838 786.781 193.179 789.031 198.998C791.035 204.181 791.755 208.5 790.652 213.929L790.54 214.458C790.345 215.343 790.181 216.192 790.034 217.029C791.527 218.339 792.79 219.981 793.738 221.891C797.196 228.871 796.681 236.832 794.044 243.911C795.199 248.419 795.052 253.181 793.345 257.514C796.542 262.119 798.223 267.767 797.729 273.627C797.175 280.188 794.179 286.063 789.636 290.407C790.846 299.369 787.202 309.052 780.613 315.362C781.548 320.727 780.741 326.35 777.806 331.436C775.714 335.061 772.898 337.761 769.649 339.643C769.756 342.636 769.351 345.697 768.355 348.764C766.972 353.02 764.63 356.941 761.548 360.099C763.387 371.857 756.347 384.904 743.956 388.203C742.915 388.48 741.922 388.607 740.971 388.627C739.74 399.936 737.052 411.088 732.89 421.679C722.31 448.648 703.07 472.228 677.98 486.938C665.57 494.208 651.63 499.188 637.4 501.268C627.16 502.768 617.31 502.398 607.031 501.378C594.13 500.088 581.17 498.158 568.63 494.838L566.613 494.302C561.415 492.909 555.934 491.302 551.43 488.498C546.39 485.358 543.771 480.518 542.611 474.818C541.964 471.645 543.973 468.233 547.446 468.168L547.67 468.168C548.43 468.184 549.184 468.155 549.947 468.107L550.521 468.068H550.55C550.59 468.058 550.611 468.058 550.65 468.058C550.99 468.008 551.32 467.908 551.65 467.858C555.471 467.215 558.812 467.853 562.4 469.046L562.85 469.198C568.89 471.278 574.88 473.208 581.12 474.638C587.57 476.108 594.1 477.278 600.65 478.198L601.3 478.278L601.5 478.308L601.6 478.318C601.62 478.318 601.64 478.318 601.66 478.328L603.59 478.568C605.111 478.748 606.63 478.908 608.15 479.068C610.95 479.348 613.75 479.568 616.55 479.728C664.88 482.448 705.47 444.398 717.72 398.778C722.16 382.268 722.45 365.798 721.14 349.318C720.72 348.118 720.47 346.788 720.48 345.328C720.48 344.568 720.521 343.818 720.57 343.058C718.941 327.118 716.111 311.168 714.34 295.168C712.271 276.478 711.12 257.679 711.54 238.868C711.75 229.578 712.74 220.378 714.04 211.179L714.51 207.874C708.635 206.727 703.173 203.941 698.824 199.908C689.386 205.358 677.171 205.841 667.855 200.086C657.415 206.633 642.829 207.227 632.316 200.826C625.962 205.362 617.956 207.319 610.097 205.597C606.562 204.823 603.047 203.148 600.037 200.829C597.888 201.208 595.711 201.355 593.546 201.242L593.099 201.492C588.109 204.122 582.581 205.853 576.892 205.66C572.68 205.518 568.341 204.687 564.324 203.115C560.033 205.705 555.337 207.473 550.313 208.107C542.976 209.032 535.058 207.409 528.956 203.247C517.805 209.599 504.089 210.577 492.053 206.309C489.588 210.484 486.177 214.084 482.183 216.859C482.898 219.421 483.126 222.153 482.88 224.78C482.476 229.104 481.392 232.981 479.619 236.463C481.488 240.351 482.05 245.125 481.004 249.917C479.513 256.751 475.537 262.696 470.389 267.326C469.935 278.232 463.954 288.458 454.22 294.139C453.727 294.426 453.237 294.66 452.748 294.871C452.318 295.459 451.804 295.976 451.217 296.412C445.027 302.131 435.231 301.676 427.472 298.445C427.322 298.452 427.173 298.465 427.021 298.468C424.25 298.538 422.361 297.458 421.24 295.868C420.111 295.929 418.99 296.048 417.861 296.258C413.74 297.028 409.22 298.508 405.49 300.429C395.81 305.408 391.33 314.208 389.99 324.788C388.531 336.328 391.85 348.088 400.781 355.898C405.12 359.698 410.67 362.078 416.31 363.078C422.54 364.188 429.2 361.458 433.8 366.808C434.72 367.868 435.35 369.348 434.85 370.778C433.29 375.238 430.72 376.948 426.7 377.568C432.51 384.458 438.47 391.118 445.07 397.308C452.21 404.018 459.59 410.518 466.031 417.918C472.84 425.748 478.99 434.048 483.26 443.548C485.7 449.008 487.66 454.638 489.771 460.228L490.148 461.202C492.502 467.141 495.632 472.866 492.01 479.068C490.57 481.508 487.31 483.868 484.31 483.478C475.861 482.398 473.031 476.688 470.43 469.248C468.47 463.628 466.97 457.848 464.861 452.278C464.466 451.247 464.036 450.226 463.585 449.211C458.713 450.569 453.356 449.491 449.008 446.713C444.362 448.772 439.215 449.799 434.244 449.712C427.588 449.595 421.507 447.746 416.279 444.411C415.863 444.301 415.445 444.195 415.03 444.076C407.077 447.122 397.763 446.578 390.562 441.641C385.899 438.444 382.711 434.177 380.899 429.426C374.874 429.311 368.914 427.175 364.597 422.901C360.633 418.977 358.316 413.914 357.628 408.653C352.442 407.626 347.58 405.119 343.767 400.896C340.583 397.369 338.648 392.877 337.994 388.213C331.678 386.411 325.982 382.287 322.871 376.537C319.976 371.184 319.558 365.377 320.974 360.095L320.607 359.567C314.101 356.162 309.136 350.588 308.626 342.626C308.482 340.359 308.726 338.091 309.341 335.945C309.119 333.546 309.261 331.148 309.89 328.828C301.14 320.318 297.97 306.648 302.72 295.348C294.17 286.148 291.91 271.598 298.18 260.679C293.88 255.478 291.67 248.848 292.04 241.768C292.5 232.929 296.55 225.208 301.4 218.058C297.8 214.078 295.88 208.528 296.021 203.168C296.22 195.398 300.35 188.708 305.521 183.168C301.01 169.488 306.05 154.648 317.12 145.988C314.88 142.298 314.05 137.728 314.781 133.098C316.06 125.008 322.13 119.498 328.68 115.138C327.31 110.679 327.67 105.868 329.85 101.258C332.76 95.108 338.25 91.208 343.98 87.908C345.46 74.268 360.7 62.618 373.48 69.658C370.31 59.508 379.441 48.548 389.941 47.388C395.08 31.808 412.81 21.988 428.75 25.858C436.9 14.718 452.07 10.429 464.95 15.208C479.111 4.35798 496.68 2.74798 513.25 8.25798ZM412.38 314.168C422.33 313.628 429.79 321.748 435.031 329.178C439.95 336.148 427.33 343.508 423.65 335.828C422.33 333.088 420.83 330.188 418.82 327.788C418.482 328.261 418.184 328.75 417.888 329.252L417.59 329.758C417.37 330.128 417.14 330.508 416.95 330.898C416.97 330.968 416.67 331.888 416.66 331.928C415.84 334.418 414.05 336.018 411.611 336.878C408.46 337.978 405.48 335.608 404.47 332.828C402.861 328.388 406.6 324.518 410.49 322.758C406.67 322.138 402.91 323.438 400.15 326.378C399.771 326.788 399.13 326.458 399.111 325.948C398.79 318.978 406.08 314.508 412.38 314.168Z" fill="black"/>
</g>
<g id="face/Eyes Closed">
<path id="&#240;&#159;&#150;&#141; Ink_3" fill-rule="evenodd" clip-rule="evenodd" d="M644.244 410.965L644.935 410.805C650.46 409.502 655.776 407.731 660.922 411.154C665.825 414.415 666.506 420.447 662.686 424.847C658.759 429.371 653.544 429.118 648.039 429.18L647.695 429.184C643.124 429.247 638.477 429.179 633.924 428.774C629.679 428.396 625.407 427.792 621.211 426.999L618.73 426.513C616.195 426 613.698 425.333 612.392 422.879C610.114 418.602 627.046 415.246 629.103 414.659C634.095 413.234 639.181 412.112 644.244 410.965ZM653.634 359.395C650.935 362.194 647.37 364.106 643.368 365.296C633.309 368.286 620.475 366.693 612.26 363.646C610.556 363.014 608.963 361.725 608.048 360.114C607.212 358.642 606.929 356.911 607.565 355.145C607.747 354.644 607.967 354.151 608.188 353.667C608.791 352.347 610.019 351.321 611.462 350.734C612.96 350.125 614.664 350.001 616.03 350.43C616.214 350.488 616.402 350.547 616.595 350.608C621.8 352.249 630.337 354.966 637.41 354.439C641.654 354.123 645.387 352.624 647.317 348.74C648.335 346.692 648.053 344.667 647.151 342.813C645.79 340.017 643.064 337.584 640.768 335.908C637.531 333.544 634.079 332.6 630.508 331.604C629.163 331.229 627.8 330.848 626.424 330.393C625.971 330.243 625.574 329.949 625.276 329.567C624.982 329.189 624.79 328.729 624.729 328.266C624.667 327.787 624.744 327.31 624.966 326.898C625.172 326.516 625.501 326.181 625.993 325.961C632.979 322.831 642.015 324.899 648.835 329.823C652.243 332.284 655.086 335.445 656.838 338.978C658.464 342.256 659.155 345.853 658.518 349.521C657.805 353.628 656.067 356.871 653.634 359.395ZM539.136 289.555C541.099 288.69 542.712 292.739 543.116 293.843L543.951 296.133C545.314 299.826 546.879 303.581 549.745 306.322C552.144 308.617 555.988 310.562 558.771 307.877C561.411 305.33 560.124 302.461 560.513 299.336C561.215 293.684 568.922 288.035 573.556 293.933C584.024 307.259 567.828 325.791 552.91 322.54C545.323 320.886 539.216 314.803 536.707 307.569L536.578 307.187C535.076 302.604 533.557 292.016 539.136 289.555ZM674.22 298.836L674.147 298.667C669.161 287.326 686.947 282.452 688.455 292.635L688.551 293.322C690.018 304.626 686.927 319.828 673.081 320.955C657.539 322.221 651.067 304.88 652.455 292.155C652.704 289.877 655.468 289.562 656.322 291.632L656.504 292.083C659.013 298.478 661.396 310.777 670.238 310.765C676.146 310.756 675.864 302.781 674.22 298.836ZM685.496 266.005C694.43 265.688 694.418 279.67 685.496 279.88C655.694 280.581 625.869 281.513 596.058 281.673L590.64 281.706C562.638 281.894 534.54 282.277 506.62 279.926C504.237 279.726 504.68 276.38 506.671 276.515C535.942 272.349 565.57 271.131 595.064 269.548C625.181 267.931 655.356 267.075 685.496 266.005Z" fill="black"/>
</g>
</g>
</svg>
