<svg width="873" height="1321" viewBox="0 0 873 1321" fill="none" xmlns="http://www.w3.org/2000/svg">
<g id="Six">
<g id="body/mono/Pointing Up">
<path id="&#240;&#159;&#142;&#168; Background" fill-rule="evenodd" clip-rule="evenodd" d="M792.24 654.118C781.923 625.701 789.673 589.723 768.407 566.209C762.117 562.386 758.781 564.513 756.192 571.179C754.629 579.951 750.967 610.154 764.137 610.14C765.794 629.003 764.758 648.003 760.702 666.515C750.983 664.956 743.896 669.951 736.806 673.666C731.519 676.436 726.23 678.494 719.845 676.593C693.486 671.947 685.974 699.627 685.654 722.221C685.267 733.245 684.231 758.943 679.375 769.64C657.397 724.123 611.239 703.4 567.258 693.168C560.364 691.261 554.481 688.655 550.059 684.201C513.003 669.57 530.805 621.634 513.757 594.084C487.073 561.332 455.027 551.908 414.655 557.521C379.332 561.427 355.321 597.308 357.499 631.177C358.152 638.088 354.004 645.357 351.564 652.469C327.182 681.644 289.243 694.697 256.612 712.326C147.775 765.52 110.057 806.171 67.7618 919.361C47.9758 961.948 24.2968 1003.28 16.4328 1050.18C7.1918 1105.45 7.1628 1162.03 10.3798 1217.85C4.3738 1218.57 10.9098 1261.47 16.1778 1276.34C17.9828 1281.43 22.3078 1285.1 27.6968 1285.02C38.5368 1290.29 63.9878 1311.52 75.3258 1310.81C111.959 1308.56 147.567 1312.05 182.861 1310.24C221.044 1308.29 258.86 1301.17 297.206 1302.09C364.078 1303.7 316.201 1307.67 385.386 1310.81C429.061 1312.83 588.399 1288.97 631.95 1292.87C667.374 1300.32 683.535 1287.76 678.131 1250.75C676.133 1236.56 669.753 1205.02 690.741 1203.68C700.669 1204.83 708.887 1214.75 716.326 1220.55C782.024 1269.46 849.141 1234.24 854.43 1153.83C864.387 1086.39 878.348 1070.46 847.999 1003.11C751.98 752.392 896.644 786.455 798.97 669.023C791.343 675.664 793.282 657.939 792.24 654.118Z" fill="white"/>
<path id="Vector 1" d="M629 300.5L393 321.5L333 361L354 617L361.5 630L351.5 657C339.167 663.5 314 676.7 312 677.5C310 678.3 351.5 700.833 372.5 712L542 757.5L666 810.5L748.5 886L818.5 893.5V842V804L831 766L839.5 727.5L826.5 699L794.5 672L791 637L784 587L762 567V606V659L739.5 672L731.5 677L717 672L696.5 678.5L684 708L689.5 748.5L542 698L523 650.5V623.5L519 619.5L558 608L629 616.5L677 542L629 300.5Z" fill="#C68642"/>
<path id="&#240;&#159;&#150;&#141; Ink" fill-rule="evenodd" clip-rule="evenodd" d="M755.751 564.332C760.991 559.182 769.321 560.463 774.431 565.042C779.631 569.692 782.761 577.002 785.431 583.303C797.411 611.633 794.621 642.652 800.681 672.292C811.771 678.282 821.782 686.102 828.871 696.622C839.641 712.602 844.751 731.213 839.351 750.152C836.561 759.952 831.821 769.032 828.441 778.622C824.831 788.832 822.621 799.442 821.561 810.223C820.521 820.803 820.381 831.442 820.681 842.062C820.841 847.562 821.131 853.053 821.421 858.542C821.681 863.463 822.553 868.597 821.376 873.418L821.231 873.973C821.691 873.902 822.141 873.812 822.591 873.713C826.452 872.852 829.851 871.512 833.881 872.042C837.021 872.452 838.651 875.072 837.321 878.032C836.741 879.322 835.971 880.402 835.041 881.322C843.141 941.223 857.291 1000.16 866.601 1059.87C870.821 1086.96 873.391 1114.13 871.941 1141.56L871.788 1144.28C870.31 1169.47 866.678 1197.22 853.881 1219.24C847.901 1229.55 839.681 1238.7 829.721 1245.29C825.16 1248.31 820.271 1250.67 814.961 1251.85C787.441 1262.81 758.341 1260.12 732.391 1245.63C720.721 1239.12 709.081 1231.53 699.551 1222.11C694.921 1217.53 690.452 1211.7 687.711 1205.33C687.721 1206.76 687.462 1208.22 687.751 1209.63L688.328 1212.42C692.65 1233.12 709.122 1309.62 709.341 1316.04C709.459 1319.51 680.294 1319.42 677.129 1319.53L677.041 1319.53C629.804 1321.5 582.538 1320.45 535.328 1318.5L531.601 1318.34C485.816 1316.4 435.993 1313.8 390.159 1312.46L390.254 1311.7C390.802 1307.58 393.472 1289.27 393.77 1287.87L393.781 1287.82C395.08 1282.59 397.586 1266.3 396.267 1260.9C392.869 1246.99 377.559 1250.17 366.787 1251.64L364.518 1251.94C362.775 1252.18 358.532 1252.8 358.572 1252.84C357.427 1251.65 360.15 1248.27 360.82 1247.36L361.357 1246.62C364.251 1242.57 366.87 1238.36 366.584 1233.14C365.888 1220.39 347.671 1221.11 338.719 1221.99C338.088 1222.06 337.83 1223.04 338.557 1223.19L340.323 1223.56C346.002 1224.78 358.617 1227.89 358.332 1232.58C358.17 1235.25 355.327 1237.22 353.59 1238.9C351.675 1240.76 349.772 1242.76 348.359 1245.03C345.639 1249.42 345.021 1255.33 347.712 1259.89C350.816 1265.15 356.322 1265.77 361.836 1265.29L362.149 1265.26C363.362 1265.15 364.576 1265.03 365.789 1264.91L373.07 1264.2C374.873 1264.03 380.666 1262.51 382.358 1263.55C384.756 1265.04 381.872 1271.61 381.331 1273.78L381.302 1273.94C380.837 1277.07 380.559 1309.94 380.512 1312.11C344.793 1311.28 309.069 1303.34 273.351 1305.2C244.975 1306.68 216.676 1309.25 188.353 1311.47L187.638 1305.39C179.788 1239.19 167.479 1151.83 173.387 1086.34C173.849 1081.22 165.846 1081.25 165.387 1086.34C159.279 1154.06 172.649 1245.02 180.426 1312.08C168.369 1313 156.307 1313.83 144.231 1314.46L141.151 1314.62C100.059 1316.67 57.6452 1316.8 17.4306 1307.37C16.1906 1307.08 15.7706 1305.84 16.0306 1304.81C15.6306 1305.04 15.0306 1304.91 14.8606 1304.35C10.1759 1288.91 7.79638 1249.59 5.67336 1232.58L5.5306 1231.46C3.3506 1214.93 2.1006 1198.21 1.2006 1181.58C-0.619401 1148.31 -0.3994 1115 2.0606 1081.77C9.8906 975.782 41.0706 868.702 106.511 783.522C122.331 762.932 140.341 744.092 161.951 729.522C183.151 715.223 206.931 705.152 231.061 696.973C247.011 691.562 263.211 686.932 279.411 682.312C280.024 682.005 280.637 681.703 281.254 681.406L282.181 680.963C287.941 678.232 293.611 675.242 299.511 672.812L300.814 672.282C309.364 668.852 319.325 665.817 328.581 665.922C343.571 658.372 356.161 646.963 354.941 628.662C354.441 621.142 366.241 621.152 366.661 628.662C367.761 648.642 355.452 662.812 339.761 672.322L339.836 672.398L339.911 672.482C342.361 675.262 344.981 677.842 347.811 680.242C364.751 694.662 386.181 706.633 407.601 714.512C432.731 723.762 457.841 726.532 483.831 719.053C497.421 715.142 510.251 709.112 522.041 701.312C525.641 698.932 529.091 696.383 532.401 693.652C529.271 689.372 526.771 684.762 524.671 679.872C520.452 670.032 516.961 656.702 521.271 646.312C522.331 643.752 526.541 642.172 528.011 645.432C532.061 654.352 533.751 663.992 538.471 672.713C540.271 676.032 542.341 679.182 544.661 682.152C544.661 682.312 562.381 685.342 562.381 685.342C583.801 685.332 603.971 693.562 622.921 703.842C634.122 709.92 645.131 716.384 656.108 722.857L677.561 735.512C679.141 736.442 680.911 737.342 682.681 738.303C680.611 728.082 679.601 717.662 680.281 707.332C681.311 691.752 687.371 674.713 703.421 669.162C711.011 666.532 719.791 667.342 727.161 670.262C730.561 671.612 734.261 673.402 737.421 675.792C738.952 668.912 745.401 663.752 751.881 661.473C753.981 660.732 756.131 660.262 758.311 660.032C758.247 658.928 758.24 657.811 758.256 656.661L758.271 655.792C758.371 650.692 758.331 645.592 758.221 640.502C758.021 630.852 757.561 621.402 756.581 611.782C755.762 603.818 754.341 595.946 753.285 588.014L752.848 584.605C751.958 577.888 750.464 569.523 755.751 564.332ZM111.406 1215.52L109.618 1214.46C103.762 1211 97.7297 1207.82 90.6356 1209.42C83.8776 1210.94 79.0836 1216.43 76.5646 1222.61C75.3746 1225.53 74.7536 1228.48 74.2946 1231.59C74.0366 1233.33 73.8626 1235.09 73.5566 1236.82L73.4542 1237.36C73.3157 1238.05 73.1037 1239.01 72.9106 1239.85C71.0666 1239.03 69.2096 1237.75 67.7006 1236.98L66.4836 1236.37C63.6275 1234.95 60.656 1233.6 57.5436 1232.94C50.8016 1231.51 43.3226 1233.57 39.4686 1239.61C36.1723 1244.78 36.2396 1250.87 37.5007 1256.66L37.5906 1257.06C38.1376 1259.46 40.9646 1269.08 45.0766 1267.68C49.0756 1266.31 49.6096 1261 49.9126 1257.45L49.9351 1257.12C50.0715 1254.44 49.542 1248.83 52.5666 1247.82C56.3456 1246.55 63.6166 1252.34 66.9076 1253.85C72.7926 1256.55 79.2576 1257.35 84.0466 1252.09C88.3404 1247.38 88.7026 1240.48 89.8139 1234.5L90.1009 1232.99C90.6904 1229.96 91.8311 1225.1 95.1926 1225.23C97.9396 1225.33 100.956 1228.17 103.22 1229.52C105.719 1231.02 108.314 1232.26 111.026 1233.32C117.355 1235.79 124.392 1236.58 131.125 1235.85C135.026 1235.43 137.566 1233.57 138.945 1229.9C139.412 1228.82 139.768 1227.71 140.014 1226.56C142.2 1218.35 130.256 1212.49 125.852 1219.84C120.771 1219.64 116.041 1218.27 111.406 1215.52ZM846.5 1160.6C842.858 1158 837.912 1158.56 834.657 1161.49L834.463 1161.67C833.561 1162.54 831.526 1164.81 830.209 1166.8L829.796 1166.48C829.73 1166.43 829.666 1166.38 829.604 1166.33L829.426 1166.18C826.734 1163.9 823.921 1161.82 820.457 1160.89C811.431 1158.46 803.228 1164.51 799.287 1172.26C797.418 1175.93 796.618 1179.73 795.686 1183.69L795.606 1184.05C795.231 1185.9 794.742 1189.65 793.123 1190.56C792.528 1190.9 791.178 1190.23 789.842 1189.46C786.795 1187.7 784.06 1185.46 781.074 1183.61C774.068 1179.26 766.107 1177.46 758.239 1180.6C750.45 1183.7 744.87 1191.02 744.739 1199.55C744.642 1205.84 748.852 1216.81 756.775 1216.04C758.362 1215.89 760.405 1214.91 760.662 1213.08C761.345 1208.23 757.517 1202.26 761.907 1198.25C766.152 1194.38 770.55 1197.64 774.393 1200.33L777.146 1202.26C781.618 1205.37 786.224 1208.21 791.887 1208.55C799.051 1208.98 805.665 1205.02 809.27 1198.92C812.529 1193.41 812.577 1187.17 815.125 1181.51C815.682 1180.28 817.118 1179.14 816.64 1178.57C818.571 1179.57 821.062 1182.47 822.265 1183.28C828.255 1187.32 836.263 1187.29 841.514 1181.94C843.606 1179.8 844.938 1177.17 846.487 1174.66C847.047 1173.75 847.746 1172.91 848.257 1171.98C848.444 1171.64 848.751 1170.36 849.004 1169.22L849.392 1167.42L849.432 1167.12C849.764 1164.39 848.799 1162.24 846.5 1160.6ZM615.785 1136.73C608.904 1133.11 600.421 1134.49 594.222 1138.86C587.271 1143.77 583.86 1151.31 581.54 1159.28C579.852 1165.09 579.043 1173.09 574.192 1177.29C568.546 1182.18 559.081 1176.99 553.121 1175.06C545.91 1172.73 537.245 1171.78 530.209 1175.23C523.314 1178.61 519.991 1185.5 519.279 1192.89C518.614 1199.78 519.602 1208.86 523.535 1214.63C523.922 1215.2 524.661 1215.05 524.906 1214.45C527.491 1208.09 526.993 1200.8 529.092 1194.22C531.333 1187.19 536.585 1185.7 543.253 1187.59C550.208 1189.56 556.577 1193.25 563.73 1194.57C571.356 1195.97 578.907 1194.52 584.919 1189.48C589.977 1185.24 593.04 1179.07 595.11 1172.92C597.127 1166.92 597.456 1158.89 601.752 1153.91C602.836 1152.65 604.725 1151.13 606.479 1150.97C609.085 1150.73 610.027 1152.67 612.132 1154.15C617.685 1158.07 626.549 1158.15 629.949 1151.26C631.062 1149 631.614 1145.79 629.949 1143.59C627.03 1139.71 624.633 1139.75 620.781 1140.58C620.658 1140.48 620.521 1140.35 620.368 1140.17L620.25 1140.02C619.231 1138.73 617.252 1137.5 615.785 1136.73ZM343.248 1096.05C343.02 1090.87 336.783 1085.9 331.863 1089.52C331.069 1090.09 330.288 1090.68 329.522 1091.3L329.208 1091.64C328.292 1091.63 327.439 1091.39 326.535 1091.11L324.953 1090.6C320.802 1089.28 316.81 1088.22 312.379 1089.19C304.754 1090.87 299.916 1097.44 297.432 1104.43C295.117 1110.93 295.877 1117.57 294.791 1124.25C293.761 1130.57 290.51 1133.04 284.406 1131.69L284.094 1131.61C271.953 1128.71 258.12 1120.58 247.476 1131.72C235.977 1143.76 243.499 1162.89 256.086 1170.62C256.636 1170.96 257.244 1170.41 257.119 1169.83C255.447 1162.05 250.568 1154.63 252.203 1146.38C253.336 1140.66 257.312 1137.95 262.986 1138.86C274.92 1140.78 286.082 1150.29 298.322 1143.39C304.436 1139.94 307.805 1133.46 309.328 1126.82C310.7 1120.85 310.311 1114.12 312.94 1108.48C315.816 1102.32 320.66 1106.79 325.88 1107.63C333.265 1108.82 343.641 1104.95 343.248 1096.05ZM743.625 911.816C743.649 906.668 735.649 906.662 735.625 911.816C735.33 977.037 704.818 1037.32 699.337 1101.9C698.903 1107.03 706.905 1107 707.337 1101.9C712.82 1037.3 743.33 977.142 743.625 911.816ZM83.0236 1018.58C78.8116 1013.81 72.6416 1015.29 67.6296 1017.68C60.1016 1021.27 52.8976 1025.3 45.9916 1029.96C44.2926 1031.11 45.3636 1033.6 47.3636 1033.22C52.4286 1032.25 57.3586 1031.16 62.2726 1029.58C65.9656 1028.39 69.8096 1026.67 73.6606 1026.06C73.4196 1026.94 73.1266 1027.81 72.7816 1028.66C72.1496 1030.41 71.4156 1032.12 70.7926 1033.87C69.5532 1037.37 68.4364 1040.91 67.3536 1044.45L66.8146 1046.23C64.5636 1053.66 62.3766 1064.48 72.7646 1066.76C76.6188 1067.61 80.4389 1065.93 84.0242 1064.61L84.7626 1064.34L97.8406 1059.71C99.3986 1059.16 102.285 1058.77 103.577 1057.8L103.37 1058.8C103.102 1060.12 102.84 1061.41 102.273 1062.72L101.956 1063.45C98.7076 1070.81 94.6118 1078.18 98.4006 1086.32C101.647 1093.29 109.32 1096.6 116.714 1094.62C123.741 1092.74 128.826 1084.83 125.188 1077.95C123.832 1075.38 119.866 1074.13 117.345 1075.73L116.668 1076.18C115.874 1076.7 114.508 1077.59 114.475 1077.75C114.287 1077.8 114.09 1077.85 113.89 1077.9C114.314 1076.65 114.6 1074.73 114.972 1073.88L116.34 1070.78C118.886 1064.94 121.093 1058.99 119.151 1052.44C113.588 1033.69 94.7226 1044.35 80.8066 1049.7C81.0096 1048.91 81.2106 1048.13 81.3806 1047.36C81.9806 1044.65 82.6369 1041.94 83.2861 1039.24L84.6173 1033.66C85.8156 1028.52 86.7483 1022.8 83.0236 1018.58ZM795.012 997.643C795.024 997.199 794.478 996.859 794.095 997.117C785.198 1003.1 779.246 1015.59 782.589 1026.22C784.212 1031.39 787.664 1035.92 792.51 1038.43C798.535 1041.55 805.188 1040.36 811.518 1039.03L814.207 1038.45C816.102 1038.05 817.972 1037.76 819.901 1038.29C820.563 1038.48 821.331 1039.05 821.96 1039.18C821.7 1039.62 821.424 1040.39 821.284 1040.67L820.825 1041.59C820.365 1042.53 819.916 1043.5 819.634 1044.48C818.688 1047.78 818.922 1051.32 820.454 1054.39C823.308 1060.12 829.294 1063.35 835.526 1063.9C839.239 1064.22 848.594 1060.97 850.806 1064.91C855.196 1072.73 867.697 1067.47 865.267 1058.82C863.624 1052.96 858.963 1049.18 853.188 1047.6C850.111 1046.75 846.926 1046.87 843.797 1047.21C842.571 1047.35 841.349 1047.54 840.122 1047.67L839.201 1047.75C839.441 1047.73 836.658 1047.67 835.54 1047.59L835.778 1046.95C835.813 1046.86 835.845 1046.78 835.874 1046.72C837.118 1044.06 838.04 1041.41 837.965 1038.44C837.828 1033.08 834.358 1028.4 829.799 1025.82C825.596 1023.44 820.591 1022.49 815.813 1023.02C810.561 1023.6 803.097 1027.76 797.932 1025.57C794.041 1023.92 792.72 1018.16 792.66 1014.38C792.57 1008.7 794.854 1003.31 795.012 997.643ZM432.634 960.35C418.32 953.926 406.028 964.898 397.628 975.396C397.195 975.938 397.74 976.85 398.423 976.428L399.538 975.732C406.397 971.431 414.001 966.349 422.5 967.814C430.194 969.14 432.1 974.175 430.568 981.036L430.119 982.966C428.491 990.031 427.243 997.343 431.297 1003.91C435.124 1010.12 442.591 1012.83 449.584 1012.99C457.65 1013.19 464.613 1009.43 471.988 1006.82L472.572 1006.61C475.704 1005.53 487.131 1002.71 487.289 1009.14C487.363 1012.08 484.213 1015.54 483.002 1018.18C481.417 1021.64 480.362 1025.28 480.381 1029.12C480.428 1038.7 488.422 1046.48 497.881 1041.83C501.558 1040.03 502.506 1034.84 500.588 1031.51C497.887 1026.81 496.793 1027.06 498.686 1022.13L499.232 1020.74C501.561 1014.8 503.415 1008.68 500.799 1002.44C495.573 989.984 479.903 988.475 468.708 992.6L468.299 992.755C461.331 995.454 440.462 1006.27 441.901 990.975C442.467 984.95 444.295 979.172 443.017 973.081C441.829 967.425 437.882 962.705 432.634 960.35ZM363.661 909.191C361.048 904.59 352.276 906.236 353.003 912.077L353.235 913.895C353.533 916.383 353.598 918.721 351.879 920.934C349.793 923.62 346.222 924.432 342.981 924.021C336.119 923.152 331.743 916.79 324.191 918.276C318.061 919.482 313.828 924.498 311.377 929.967C308.782 935.759 308.837 942.038 306.904 948.002C304.678 954.861 299.931 954.545 294.003 952.145L292.727 951.621C287.056 949.263 281.366 946.643 275.047 947.77C264.552 949.643 255.514 965.78 265.347 973.572C267.122 974.978 270.224 974.244 270.149 971.584L270.139 971.08C270.089 966.239 271.31 959.993 276.858 958.852C282.741 957.642 289.388 963.01 294.851 964.556C309 968.558 317.06 957.909 319.463 945.314L319.55 944.831C320.318 940.423 320.924 932.265 325.535 930.201C327.994 929.1 330.617 931.809 332.672 932.9C335.865 934.594 339.291 935.67 342.903 935.945C356.265 936.964 371.448 922.911 363.661 909.191ZM698.035 891.794C693.632 889.887 687.066 890.948 685.99 896.694L685.337 900.31C684.058 907.294 682.021 916.026 675.156 918.542C670.862 920.115 665.931 917.358 662.08 915.677C657.455 913.656 652.946 911.923 647.881 911.443C637.604 910.469 629.949 916.415 626.314 925.707L625.997 926.534C623.065 934.342 619.102 949.275 625.522 955.608C626.459 956.533 628.348 956.984 629.498 956.121C633.29 953.275 634.25 948.599 635.552 944.213L635.665 943.838C637.047 939.283 638.18 934.267 640.675 930.163C645.313 922.536 657.414 931.245 663.235 933.256C672.794 936.559 682.707 934.629 690.012 927.564C694.626 923.101 697.354 917.452 699.23 911.473C700.428 912.092 701.671 912.628 703.01 912.99C708.11 914.371 714.16 913.643 718.043 909.779C725.331 902.528 721.378 889.521 710.266 891.624C708.078 892.038 706.642 894.128 706.382 896.263L706.233 896.6C703.437 895.676 700.38 892.809 698.035 891.794ZM183.119 827.01C172.737 816.329 154.72 822.119 147.619 833.449C146.146 835.798 148.579 838.776 151.165 838.062C157.346 836.359 166.068 829.655 172.6 833.922C177.442 837.085 174.808 845.352 174.365 849.977L174.301 850.667C173.74 856.962 173.613 865.576 178.517 870.289C181.339 873.002 185.668 872.635 189.39 872.247L190.574 872.125C194.962 871.684 199.321 870.91 203.524 869.56C207.388 868.32 211.049 866.635 214.679 864.85L215.587 864.402C217.194 863.605 222.553 860.444 224.158 862.43C224.995 863.466 222.921 868.004 222.49 869.016C220.862 872.822 218.792 876.406 217.299 880.28C214.668 887.105 214.448 894.805 218.143 901.318C221.723 907.629 229.48 912.742 236.355 907.894C240.291 905.118 240.28 900.068 236.355 897.29C234.278 895.82 232.184 894.851 231.326 892.385C230.206 889.169 231.647 885.759 233.042 882.782L234.712 879.242C238.412 871.335 242.109 862.241 236.94 854.159C231.602 845.814 220.753 845.682 212.546 849.158C207.862 851.142 203.588 853.803 198.707 855.338C195.33 856.401 191.94 857.111 188.481 857.5C187.71 853.338 188.801 848.679 188.812 844.544C188.83 838.263 187.66 831.682 183.119 827.01ZM718.481 678.432C700.961 675.862 692.481 691.532 691.271 706.622C690.181 720.322 692.401 734.062 695.871 747.383C697.171 752.322 698.631 757.202 700.161 762.002C702.621 769.713 705.291 777.412 708.541 784.832C709.531 787.072 710.531 789.322 711.651 791.482C715.487 794.627 718.77 798.865 721.754 802.937L723.715 805.626L724.241 806.352C729.311 813.292 733.641 820.492 737.181 828.322C740.552 835.779 743.062 843.554 745.012 851.49L745.492 853.472C746.992 859.579 749.204 866.869 746.531 872.553C751.781 874.172 757.001 875.642 762.581 876.422C770.281 877.502 778.291 877.572 786.061 877.292C793.568 877.017 801.067 876.431 808.542 875.634L813.928 875.041C814.486 874.978 815.044 874.912 815.601 874.842C815.391 874.582 815.211 874.292 815.081 873.973C813.162 869.372 813.409 864.038 813.196 859.09L813.171 858.542C812.891 853.053 812.721 847.562 812.651 842.062C812.521 831.742 812.801 821.392 813.931 811.122C814.91 802.133 816.441 793.142 818.831 784.412C821.241 775.562 824.921 767.252 828.321 758.752C831.681 750.352 834.452 741.723 834.151 732.562C833.961 726.742 832.681 721.082 830.511 715.732C830.41 715.812 830.282 715.872 830.131 715.862C823.321 715.612 816.871 713.642 810.291 711.982C803.311 710.213 796.161 708.762 789.021 707.902L787.503 707.724C781.552 707.056 775.069 706.731 769.571 709.282C763.621 712.053 759.871 718.213 757.611 724.122L757.359 724.803C753.343 736.006 754.264 750.96 766.681 756.262C770.531 757.912 779.321 758.922 781.301 753.702C782.191 751.322 780.361 747.803 779.671 745.553C778.861 742.872 778.331 740.232 778.391 737.432C778.439 734.976 780.315 733.124 782.702 732.925L782.921 732.912C787.261 732.723 796.211 727.723 797.081 734.922C797.251 736.322 796.181 737.792 795.051 738.473C792.771 739.822 790.391 740.723 787.911 741.272C788.251 742.772 788.731 744.242 789.202 745.702C789.481 745.562 789.791 745.473 790.121 745.442C793.791 745.142 797.421 745.723 801.091 745.762L803.097 745.776C805.945 745.804 808.428 745.957 811.191 747.432C813.741 748.792 813.291 752.202 811.191 753.662C805.681 757.482 796.351 755.242 790.611 751.362C790.861 753.332 790.741 755.342 789.901 757.452C787.421 763.713 780.311 766.832 773.952 767.102C768.301 767.342 762.901 765.562 758.391 762.442C757.471 765.732 755.991 768.892 755.351 772.303C754.511 776.782 755.511 782.022 753.952 786.232C752.391 790.473 746.361 793.312 742.871 789.152C737.761 783.072 739.351 773.442 743.841 767.282C746.231 764.022 750.571 760.282 754.991 759.692C751.921 756.803 749.461 753.232 747.911 749.292C747.801 749.342 747.671 749.352 747.531 749.312C733.161 745.383 725.341 732.362 724.861 718.692C723.801 719.452 722.702 720.133 721.551 720.742C718.801 722.223 715.271 720.922 714.421 717.852C713.641 714.992 715.911 711.463 719.101 711.702C720.921 711.852 722.751 711.862 724.561 711.562C724.811 711.522 725.051 711.473 725.301 711.422C725.461 710.372 725.671 709.322 725.931 708.282C720.501 708.902 714.821 708.012 709.571 706.852C705.051 705.862 706.101 698.672 710.651 698.842L711.382 698.874C717.351 699.16 726.165 700.124 731.281 696.342C732.181 695.042 733.181 693.812 734.261 692.652C734.401 692.362 734.521 692.053 734.631 691.732C737.381 683.812 724.351 679.292 718.481 678.432ZM561.209 789.851C554.388 788.027 547.21 790.512 542.519 795.662C538.577 799.991 536.535 805.307 534.711 810.741L533.669 813.867C532.153 818.293 530.411 821.805 524.992 820.118C518.046 817.955 512.025 814.187 504.472 814.484C497.606 814.755 490.887 817.708 486.107 822.658C481.217 827.721 478.883 834.775 479.921 841.726L479.989 842.151C480.53 845.353 485.213 856.781 490.177 851.52C492.392 849.174 491.955 846.577 492.481 843.596C492.981 840.756 494.051 837.971 495.804 835.668C498.912 831.586 503.911 829.995 508.798 831.439C515.244 833.344 520.937 837.271 527.881 837.363C535.186 837.461 541.388 833.673 545.417 827.726C548.67 822.925 549.83 817.306 552.119 812.086L552.339 811.588C554.261 807.293 555.571 805.742 559.973 807.796L561.511 808.533C568.102 811.665 575.515 814.531 582.33 810.116C588.661 806.015 591.36 797.773 586.035 791.772C583.097 788.459 576.296 789.023 574.387 793.273C574.052 794.004 573.741 794.745 573.435 795.488C572.852 795.31 572.285 795.094 571.747 794.792C568.175 793.182 565.073 790.885 561.209 789.851ZM362.09 741.331C354.309 737.138 347.814 745.385 349.057 752.831L349.117 753.158C349.163 753.382 349.268 753.873 349.399 754.435C349.002 754.387 348.609 754.317 348.217 754.217L346.409 753.996C343.568 753.666 340.813 753.494 337.969 754.406C331.256 756.56 327.955 763.085 327.793 769.772C327.632 776.436 331.08 781.811 332.093 788.177C333.129 794.687 326.39 792.828 321.991 792.352L321.819 792.334C315.699 791.715 309.265 791.704 304.179 795.693C298.926 799.812 296.599 806.93 297.341 813.447C298.011 819.333 301.694 828.392 308.366 829.322C309.025 829.414 309.775 829.269 310.113 828.611C312.811 823.365 309.057 817.572 309.481 812.037C309.948 805.95 313.829 804.937 319.18 805.331C324.373 805.713 329.553 806.815 334.682 805.266C340.246 803.584 344.284 798.81 345.426 793.178C346.685 786.971 344.371 781.196 342.87 775.297C342.371 773.338 342.126 771.367 342.47 769.364C342.544 768.931 342.92 768.531 343.056 768.36C343.91 768.2 345.188 768.609 345.919 768.687L346.956 768.789C352.591 769.298 358.019 768.957 362.046 764.301C364.109 761.915 364.871 759 364.665 755.922L364.562 754.68C364.452 753.484 364.241 751.907 363.62 751.249L363.612 751.217C363.82 750.937 364.018 750.65 364.199 750.351L364.375 750.049C366.101 747.172 365.1 742.953 362.09 741.331ZM760.702 668.342C752.952 668.342 745.631 670.872 739.771 677.762C741.861 679.752 743.531 682.062 744.452 684.772C747.321 683.202 750.361 681.973 753.471 681.102C762.961 678.452 775.941 678.492 783.921 685.002C788.101 688.402 783.511 694.502 779.011 693.452C774.981 692.512 771.481 690.772 767.251 690.572C763.581 690.392 759.981 690.872 756.461 691.932C751.091 693.553 746.211 696.622 742.621 700.852C741.421 702.272 740.371 703.812 739.491 705.473C732.791 718.192 737.841 736.432 747.091 746.902C743.461 734.842 747.081 720.622 754.311 710.633C763.015 698.605 776.034 697.242 789.749 699.119L790.202 699.182C803.471 701.053 819.901 704.322 829.821 714.072C828.831 711.822 827.691 709.642 826.41 707.532C818.891 695.152 806.421 685.492 793.481 678.602C791.311 677.432 789.121 676.352 786.941 675.352C778.651 671.542 769.411 668.342 760.702 668.342ZM764.941 573.862L764.91 574.003C764.904 574.029 764.897 574.055 764.891 574.082C764.432 578.148 765.514 582.816 766.066 586.92L766.141 587.502C767.301 596.842 768.831 606.192 769.331 615.602C769.817 624.651 769.63 634.037 768.542 643.047L768.381 644.332C767.741 649.242 767.361 655.002 765.702 660.042C772.081 660.652 778.461 662.702 784.261 664.883C786.341 665.672 788.411 666.502 790.471 667.383C787.891 653.672 786.511 639.762 783.711 626.092L783.16 623.371C780.116 608.249 777.259 593.03 769.391 579.502C768.341 577.702 767.211 576.192 765.931 574.582C765.651 574.213 765.321 573.973 764.941 573.862Z" fill="black"/>
</g>
<g id="head/mono/Long Afro">
<path id="&#240;&#159;&#142;&#168; Background_2" fill-rule="evenodd" clip-rule="evenodd" d="M628.519 394.944C621.655 311.269 600.755 237.159 502.55 233.999C458.232 234.395 412.993 243.81 372.239 261.23C273.183 310.896 241.754 492.377 329.025 565.431C328.506 565.726 328.381 566.579 328.994 566.991C347.024 579.121 367.065 589.101 387.137 597.487C440.603 620.091 503.544 629.909 558.071 605.39C641.284 569.982 642.532 471.457 628.519 394.944Z" fill="white"/>
<path id="Vector 2" d="M357 298L306.5 487L293 528.5L402.5 631L464 616L549 611L593 597L674.5 528.5L755.5 343.5L602 298H357Z" fill="#C68642"/>
<path id="&#240;&#159;&#150;&#141; Ink_2" fill-rule="evenodd" clip-rule="evenodd" d="M792.311 355.943C795.731 352.863 798.281 348.823 799.571 344.293C800.751 340.163 800.831 335.653 799.581 331.533C798.241 327.113 795.351 323.593 796.001 318.993C796.071 318.543 796.161 318.073 796.301 317.603C798.801 308.943 804.951 302.693 802.751 293.093C802.131 290.383 800.961 287.943 799.331 286.023C799.511 283.943 799.671 281.843 799.801 279.743C803.411 271.293 803.281 261.253 799.431 252.933C798.961 248.673 798.251 244.453 797.251 240.303C797.711 236.633 797.071 232.593 795.891 229.383C793.818 223.735 791.256 218.169 788.476 212.695C788.803 211.198 788.656 209.616 787.83 208.209C786.328 205.652 784.343 203.404 782.314 201.207C780.879 198.644 779.434 196.102 778.001 193.593C777.337 192.44 776.604 191.161 775.796 189.806C777.998 185.72 779.174 181.738 776.845 176.933C775.97 175.128 773.564 173.797 771.583 173.915C769.418 174.044 767.233 174.141 765.036 174.224C760.93 169.266 756.277 164.815 751.291 162.253C746.241 157.973 741.121 153.773 736.141 149.483C734.731 148.263 733.311 147.043 731.901 145.823C731.891 145.793 731.881 145.753 731.871 145.723C730.831 141.933 729.661 138.193 728.491 134.433C727.761 132.103 727.541 129.663 725.271 128.393C720.531 125.743 713.241 125.323 707.801 124.873C707.261 124.393 706.721 123.923 706.181 123.443C708.651 116.863 708.211 109.873 705.101 103.283C704.041 101.043 700.361 100.033 698.341 101.513C693.681 104.933 688.151 106.143 682.681 105.643C674.641 99.4634 642.211 71.5174 637.2 68.5674C637.138 68.4614 637.088 68.3554 637.022 68.2504C634.205 63.7524 630.784 60.1404 626.938 57.2444C626.389 56.6714 625.84 56.0974 625.291 55.5234C625.774 52.0944 627.045 48.7834 629.091 46.0134C629.311 45.6934 629.561 45.3834 629.811 45.0834C633.391 40.8234 629.021 35.3434 624.021 37.5734C623.661 37.7334 623.301 37.8934 622.941 38.0634C619.097 39.7774 614.844 41.6404 610.415 43.2124C608.794 42.6054 607.142 42.0554 605.635 41.4494L589.499 34.9624C586.843 33.8944 584.035 32.9894 581.466 31.7344C580.57 25.7754 574.598 21.8674 568.396 22.0714C568.754 20.9274 569.288 19.8164 570.041 18.7634C570.261 18.4534 570.501 18.1534 570.751 17.8634C573.941 14.1534 569.681 7.27337 565.121 10.5734C564.801 10.8034 564.471 11.0334 564.151 11.2634C562.884 12.1524 561.587 12.9864 560.276 13.7944C558.177 12.8784 555.813 12.6694 553.339 13.6384C547.861 15.7834 542.811 17.9644 537.988 21.3264C537.792 21.4634 537.589 21.5784 537.391 21.7074C534.997 18.8154 531.196 16.8814 527.773 16.9024C527.703 16.9024 527.649 16.9014 527.587 16.9004C525.028 13.0014 520.337 10.7354 515.807 11.2864C516.113 5.69136 510.512 0.698364 505.413 0.0913645C499.455 -0.616636 494.085 2.84237 492.297 8.65437C491.799 10.2724 491.302 11.8914 490.804 13.5104C486.178 11.1754 481.296 9.38637 476.196 8.49337C464.583 6.45937 453.228 8.62537 442.037 11.8494C440.919 12.1714 439.802 12.5024 438.685 12.8324C437.089 10.9834 435.592 9.09037 434.161 7.32337C431.691 4.27337 425.761 6.71336 426.161 10.6334C426.439 13.3384 425.34 15.2844 423.571 16.6674C421.628 16.9514 419.75 17.0374 416.918 16.9804C413.175 16.9044 411.472 16.7874 407.558 15.2614C405.734 14.5514 403.463 12.6844 402.4 11.0084C398.325 4.58136 387.974 2.85037 383.044 8.97837C377.856 6.70737 371.306 9.83937 368.426 14.2554C366.919 16.5644 363.775 17.8554 359.817 18.9654C356.846 19.7974 353.808 20.4274 350.756 20.9784C349.396 19.1334 346.532 17.8964 344.431 19.4434C343.008 20.4944 341.626 21.5734 340.263 22.6794C329.753 24.1274 319.298 24.1794 309.277 20.0814C300.793 16.6114 293.003 26.0884 294.403 34.0444C291.946 35.3234 289.28 36.1744 286.853 37.5144C281.558 40.4404 277.21 45.0654 274.56 50.4994C274.085 51.4724 273.656 52.4604 273.247 53.4534C271.268 55.0644 269.311 56.7184 267.401 58.4634C264.221 56.8334 261.051 55.2034 257.871 53.5734C255.491 52.3534 251.481 53.2034 251.011 56.3634C250.241 61.5634 248.371 65.8734 245.701 69.4834C237.021 74.0434 228.671 79.1634 220.681 84.8534C211.491 87.7334 201.721 89.4134 193.691 91.3034C190.941 91.9534 189.441 95.5434 190.991 97.9334C192.631 100.463 194.271 102.993 195.901 105.523C191.331 109.983 187.041 114.643 182.991 119.463C171.721 132.863 162.291 147.553 153.851 163.113C150.511 164.463 147.171 165.803 143.831 167.153C140.611 168.453 139.161 172.193 141.771 174.943C143.011 176.253 144.121 177.633 145.071 179.083C140.341 186.913 134.771 194.053 126.981 198.733C124.611 200.153 122.831 202.383 121.881 204.913C121.071 205.453 120.271 206.033 119.481 206.623C117.281 208.283 115.951 211.903 118.531 214.053C120.341 215.573 122.041 217.373 123.481 219.363C123.791 220.493 124.111 221.633 124.431 222.763C117.191 229.423 111.171 237.163 106.651 245.843C105.581 245.673 104.481 245.783 103.591 246.443C95.5112 252.413 95.2712 261.923 98.5212 270.423C96.5612 283.233 97.8212 296.363 101.601 308.773C96.6312 313.733 93.6412 320.893 92.4212 327.793C90.2712 339.913 90.1212 358.553 89.5612 370.923C84.1412 376.153 80.2812 382.923 78.1312 390.203C76.3212 391.103 74.5112 392.003 72.7012 392.903C71.0912 393.703 69.9112 395.813 70.0053 397.593C70.4712 406.203 74.0212 413.003 78.7312 419.163C80.4012 423.913 82.8712 428.293 86.1112 432.493C88.3512 435.373 90.5412 438.133 92.4712 441.243C92.6712 441.553 92.7912 441.843 92.8812 442.043C92.1212 442.863 91.4912 444.223 90.9412 445.193C86.3212 453.333 86.2512 462.873 92.8112 469.963C90.3412 471.983 90.2612 476.063 92.4412 478.563C106.631 494.773 118.461 514.483 138.151 523.093C138.241 523.243 138.321 523.393 138.391 523.543C134.401 533.143 133.861 538.133 137.121 548.053C137.141 548.143 137.171 548.223 137.201 548.313C138.941 553.513 142.141 561.843 147.911 563.463C149.731 563.973 151.521 564.203 153.291 564.193C157.871 568.603 162.441 573.023 167.011 577.443C167.411 579.633 167.661 581.843 167.741 584.073C167.871 587.803 171.381 590.823 175.161 589.723C176.491 589.333 183.851 582.183 185.201 582.223C185.881 582.903 186.541 583.583 187.201 584.273C189.631 586.823 193.001 590.843 193.281 593.513C193.821 598.543 197.121 604.303 202.451 605.323C204.451 607.353 207.651 607.963 210.101 605.313C210.261 605.143 210.421 604.973 210.591 604.823C210.851 604.793 211.101 604.763 211.361 604.733C212.541 608.253 213.721 611.773 214.911 615.283C217.241 622.203 226.141 626.653 232.461 622.613C233.481 623.223 234.481 623.873 235.481 624.523C237.001 625.493 238.541 626.483 240.121 627.413C240.211 627.673 240.301 627.933 240.381 628.183C241.401 631.293 245.641 632.963 248.251 631.173C249.061 631.433 249.891 631.643 250.731 631.813C255.141 632.683 259.581 632.443 263.841 630.973C266.891 629.933 269.801 627.943 273.081 627.673C273.286 627.656 273.497 627.67 273.705 627.664C276.381 633.146 282.496 637.87 287.315 639.475C293.627 641.578 300.087 640.826 305.835 638.251C307.386 641.352 309.334 644.288 311.661 647.003C312.951 648.503 315.281 648.183 316.611 647.003C319.137 644.764 321.647 642.514 324.153 640.261C325.967 639.562 327.798 638.723 329.708 637.943C335.682 635.503 342.231 634.492 347.756 630.966C350.379 629.292 352.846 627.156 354.878 624.681C358.706 622.471 362.223 619.718 365.391 616.563C366.971 616.573 368.621 616.203 370.221 615.393C376.911 611.993 380.431 605.073 380.741 597.993C386.161 585.243 389.361 571.643 390.241 557.723C390.521 553.153 390.571 548.543 390.221 543.973C389.981 540.753 389.171 538.603 387.951 535.693C387.541 534.743 387.171 533.873 386.881 532.913C386.951 529.833 386.991 526.753 387.031 523.683C387.861 521.093 389.341 518.683 391.401 516.653C394.591 513.513 396.051 506.993 393.151 503.113C391.261 500.603 389.381 498.093 387.491 495.583C388.021 484.813 390.601 467.673 384.881 465.873C385.111 464.273 385.601 462.693 385.881 461.103C387.221 453.463 386.421 446.633 382.361 439.953C381.511 438.563 380.791 437.333 380.201 436.133C379.831 433.933 379.461 431.733 379.091 429.533C378.521 426.143 377.961 422.723 377.481 419.283C377.231 414.903 377.001 410.523 376.751 406.133C376.521 402.093 376.261 398.053 375.991 394.003C376.101 392.193 376.261 390.383 376.491 388.573C377.861 377.783 382.271 373.793 389.911 366.293C391.111 366.103 392.301 365.893 393.471 365.653C398.921 364.523 404.621 362.773 410.231 363.403C416.321 364.083 421.771 366.713 427.691 363.353C429.431 362.353 433.261 359.593 433.591 357.403C433.611 357.263 433.641 357.143 433.681 357.053C434.091 356.993 434.621 356.943 434.951 356.933C439.651 356.773 444.141 358.623 448.881 358.113C454.491 357.513 459.511 355.023 462.811 351.333C467.041 352.373 471.361 352.843 475.751 352.263C479.431 351.783 482.731 350.583 485.991 348.803C488.361 347.523 487.611 347.153 490.191 348.193C496.061 350.573 501.371 353.713 507.981 352.083C511.411 351.243 514.371 349.393 516.861 346.903C517.451 346.323 518.451 345.453 519.121 344.633C522.261 346.223 530.161 349.813 531.461 350.133C535.141 351.033 539.041 350.893 542.621 349.693C545.251 348.813 548.471 346.413 550.781 345.923C553.771 345.283 560.411 349.443 563.981 350.873C570.241 353.383 576.871 354.003 583.211 351.413C585.391 350.523 589.631 346.973 591.261 347.003C593.911 350.273 601.311 368.163 603.531 374.693C612.521 401.093 614.851 483.523 610.701 504.553C610.541 505.173 610.371 505.783 610.201 506.403C605.101 524.693 599.791 543.293 591.261 560.333C583.211 576.393 572.081 590.853 556.111 599.623C539.551 608.723 520.111 611.113 501.491 609.883C489.501 609.103 477.711 606.693 466.111 603.673C460.051 602.103 454.041 600.353 448.061 598.533C445.451 597.743 442.801 597.003 440.241 596.083C435.721 594.453 433.351 594.323 429.021 596.413C425.081 598.313 424.071 603.923 426.121 607.453C429.461 613.213 435.581 613.613 441.491 615.293C447.511 617.003 453.551 618.643 459.631 620.113C471.281 622.913 483.121 625.063 495.061 626.053C516.441 627.843 538.471 625.083 557.931 615.753C560.131 614.693 562.251 613.563 564.301 612.343C563.541 613.403 562.771 614.463 561.991 615.513C559.831 618.423 561.431 623.373 564.461 624.963C565.421 625.463 566.381 625.943 567.351 626.413C567.481 626.723 567.621 627.033 567.781 627.343C570.551 632.903 576.351 636.183 582.261 637.603C589.281 639.283 597.141 638.093 604.281 637.883C610.901 637.683 617.521 637.483 624.131 637.283C625.691 637.243 627.251 637.193 628.811 637.143C636.671 636.903 644.521 636.673 652.371 636.433C659.371 636.223 659.041 636.763 665.611 633.963C668.541 632.703 670.941 630.923 672.961 628.553C674.221 627.993 675.441 627.353 676.611 626.623C680.371 624.283 683.711 621.143 686.791 617.683C692.021 619.333 699.351 617.803 700.371 611.233C702.011 600.723 715.671 596.233 722.051 588.633C727.201 582.503 730.881 574.473 730.691 566.763C743.671 560.483 750.731 543.933 752.381 529.893C753.151 523.383 753.031 516.413 754.141 509.793C754.631 509.263 755.071 508.703 755.441 508.103C758.701 502.833 761.541 497.403 764.041 491.843C767.441 489.393 771.531 487.883 775.811 487.633C786.331 487.023 788.311 472.833 778.281 469.413C778.231 469.393 778.191 469.383 778.141 469.363C780.861 462.563 780.631 454.513 777.331 448.073C777.471 447.373 777.601 446.683 777.731 445.983C783.361 439.933 786.591 431.523 786.231 423.333C788.801 421.523 791.681 420.123 794.831 419.253C799.701 417.913 799.731 411.973 796.131 409.313C794.681 408.243 793.481 406.993 792.481 405.613C794.971 398.133 793.991 389.483 788.901 383.343C792.131 379.203 795.361 375.063 798.591 370.923C800.731 368.183 801.861 363.533 798.591 360.933C796.501 359.263 794.411 357.603 792.311 355.943Z" fill="black"/>
</g>
<g id="face/Cute">
<path id="&#240;&#159;&#150;&#141; Ink_3" fill-rule="evenodd" clip-rule="evenodd" d="M528.534 537.337C531.965 531.283 542.203 532.267 543.768 539.328C546.943 553.642 529.874 566.86 516.91 567.19C504.027 567.517 489.572 556.552 491.437 542.702C491.898 539.276 496.474 539.692 498.034 541.84L498.639 542.664C502.876 548.356 508.467 554.248 516.331 552.86C519.59 552.286 522.55 550.25 524.52 547.629C526.896 544.466 526.635 540.689 528.534 537.337ZM446.615 432.616C448.361 432.135 450.123 432.321 451.67 432.979C455.124 433.612 458.009 436.492 459.023 439.78C459.103 440.065 459.192 440.346 459.291 440.624L459.445 441.039L459.031 439.985C459.222 441.023 460.067 442.114 460.371 443.156C460.745 444.437 460.836 445.892 460.71 447.302C461.808 447.313 462.906 447.35 464.002 447.445L465.061 447.54C470.984 448.091 477.486 449.1 480.998 454.218C482.97 457.094 481.119 462.272 477.496 462.826C471.919 463.679 467.115 460.593 461.557 459.975C456.303 459.39 450.805 459.725 445.619 460.674C434.912 462.632 425.073 466.972 414.639 469.695L413.219 470.055L413.221 470.048C411.433 470.48 409.403 467.994 411.172 466.54C419.531 459.673 430.233 454.108 440.776 450.719C439.24 448.276 438.765 445.058 439.815 442.435C439.977 441.892 440.179 441.363 440.392 440.836L440.836 439.752C440.879 439.241 440.977 438.736 441.119 438.241L441.142 438.09L441.155 438.099C441.94 435.548 443.99 433.34 446.615 432.616ZM553.26 433.011C555.546 430.724 558.758 431.062 561.144 432.862L561.461 433.11C563.71 434.109 565.571 436.292 566.793 438.315C568.062 440.416 568.905 442.556 568.938 444.869C574.472 444.887 579.773 446.547 583.836 451.015C585.148 452.457 586.044 454.681 585.322 456.636L584.892 457.799C583.527 461.491 577.394 463.617 575.309 459.275L575.213 459.063C572.998 453.907 564.495 454.448 559.976 454.975C556.826 455.344 553.715 456.127 550.673 457.004C549.601 457.313 548.539 457.649 547.478 457.991L546.417 458.335C545.851 458.518 542.903 460.119 544.737 459.74C545.23 459.638 545.601 460.356 545.098 460.597C542.912 461.642 540.58 459.561 540.726 457.213C540.979 453.137 547.451 450.903 550.565 449.497L550.752 449.412C551.946 448.86 553.197 448.331 554.488 447.84C553.762 446.76 553.162 445.56 552.663 444.272C552.191 443.056 551.876 441.874 551.703 440.581C551.533 439.949 551.533 439.317 551.703 438.684L551.729 438.503C551.641 438.085 551.599 437.653 551.605 437.218L551.587 437.049H551.605C551.666 435.526 552.271 434 553.26 433.011ZM516.732 476.416C525.515 479.13 540.005 486.523 535.428 497.934C529.037 508.414 512.088 500.712 503.875 497.326C496.496 494.882 492.654 505.223 499.789 508.34C558.748 531.665 558.531 470.106 518.87 471.01C514.503 471.109 514.366 475.514 516.732 476.416ZM438.727 396.149L440.225 395.712C448.01 393.457 455.957 389.563 462.869 395.639C465.583 398.025 466.142 402.983 464.2 405.959C459.776 412.74 453.215 411.704 446.07 412.282C440.63 412.722 435.271 414.32 430.193 416.317C426.043 417.95 422.194 420.249 418.56 422.813C414.99 425.334 412.551 429.275 408.889 431.544C407.547 432.376 405.997 431.52 405.515 430.171C403.807 425.386 406.693 419.425 409.135 415.348C412.116 410.374 416.644 406.306 421.513 403.228C426.845 399.856 432.74 397.91 438.727 396.149ZM552.164 391C565.323 390.996 577.985 398.315 585.345 409.044C587.846 412.689 586.013 418.089 582.423 420.188C578.396 422.544 574.09 420.847 571.436 417.472L571.278 417.267C567.057 411.646 561.616 407.219 555.166 404.337C552.019 402.93 548.539 401.789 545.135 401.21L544.035 401.021C542.493 400.763 540.705 400.516 539.31 400.758C538.563 400.856 537.877 401.103 537.245 401.479C537.549 402.143 536.764 402.943 536.039 402.545C532.769 400.749 533.17 397.545 535.871 395.055C539.692 391.532 547.229 391.001 552.164 391Z" fill="black"/>
</g>
</g>
</svg>
