<svg width="787" height="1253" viewBox="0 0 787 1253" fill="none" xmlns="http://www.w3.org/2000/svg">
<g id="Two">
<g id="body/mono/Dress">
<path id="&#240;&#159;&#142;&#168; Background" fill-rule="evenodd" clip-rule="evenodd" d="M749.567 1171.4C747.141 1148.87 745.646 1126.18 744.788 1103.53C743.931 1080.91 745.052 1058.02 745.544 1035.39C746.547 989.362 748.177 943.224 744.512 897.265C741.049 853.83 733.098 810.698 720.551 768.964C714.441 748.639 708.002 727.496 697.953 708.716C687.848 689.834 671.842 677.26 654.26 665.729C635.541 653.452 616.972 640.943 598.326 628.552C582.674 618.151 554.507 606.046 541.665 592.141C528.152 577.51 525.612 541.243 516.613 523.911C507.849 507.029 483.041 496.016 463.939 496.016C432.322 496.016 408.366 494.4 382.368 523.647C369.397 538.24 379.717 552.992 366.121 566.998C353.621 579.875 321.654 593.109 305.543 600.581C286.247 609.53 266.464 617.431 246.394 624.469C225.921 631.649 204.932 637 184.344 643.776C164.61 650.271 138.841 677.042 123.521 691.207C109.278 704.377 105.744 702.902 94.9157 718.901C71.1517 754.012 47.3617 789.526 28.4377 827.541C19.0117 846.477 9.88473 866.396 6.46473 887.426C2.81673 909.856 6.43373 931.532 12.3497 953.249C18.3717 975.35 37.4947 996.393 43.7247 1018.44C46.5957 1028.6 36.7407 1039.68 41.2737 1049.26C43.5377 1054.04 46.3887 1058.3 49.6347 1062.46C52.1357 1065.67 61.8891 1064.96 63.1511 1068.89C64.4261 1072.86 57.3697 1081.09 57.2647 1085.2C57.1157 1091.08 56.8817 1096.95 56.6887 1102.83L55.5487 1137.57C54.7997 1160.41 54.0507 1183.24 53.3017 1206.07C53.0567 1213.52 52.6997 1220.81 54.4867 1227.88C53.8417 1227.28 53.2287 1226.63 52.6687 1225.9C51.0297 1223.76 47.5537 1225.57 48.9447 1228.08C51.2667 1232.25 54.6057 1235.19 58.5287 1237.3C63.0877 1244.03 753.512 1259.04 756.909 1239.39C758.815 1228.36 755.346 1216.56 753.959 1205.61C752.515 1194.2 750.799 1182.84 749.567 1171.4Z" fill="white"/>
<path id="Vector 5" d="M715 287L517 167H389L335.5 371.5L340 520.5V594.5L191 645.5L130.5 681.5L119.5 698L161 708.5L516.5 728L718.5 710.5L633 653L543 596.5L525.5 556L524 543L565.5 532L659 504L715 287Z" fill="#C68642"/>
<g id="Vector 7">
<path d="M549.5 429L493 423.5L455.5 437.5L451 464.5L475 489L554 491.5L603 476.5L614 460L616 440.5L593 426.5L549.5 429Z" fill="#C68642"/>
<path d="M57 1236.5L62 1069L175.5 1078L745.5 1053L764.5 1241.5L719 1246L188.5 1244.5L69 1239L59.5 1238L57 1236.5Z" fill="#C68642"/>
</g>
<path id="&#240;&#159;&#150;&#141; Ink" fill-rule="evenodd" clip-rule="evenodd" d="M48.2284 887.466C49.9174 882.628 57.6434 884.721 55.9424 889.592C47.1984 914.638 53.4014 941.893 62.8544 965.802C64.7514 970.599 57.0114 972.66 55.1404 967.928C45.1964 942.778 39.0444 913.769 48.2284 887.466ZM106.857 1030.53C131.517 1034 156.197 1036.14 181.027 1037.87C182.137 1037.95 183.097 1037.78 183.927 1037.42C183.187 1048.79 182.587 1060.17 182.117 1071.55C175.347 1071.36 168.437 1071.81 161.727 1071.63C152.957 1071.39 144.197 1070.95 135.447 1070.28C118.507 1069 101.597 1066.96 84.8474 1064.14C78.5874 1063.09 70.6374 1062.45 63.5074 1060.37C56.7674 1058.4 50.7674 1055.14 47.6174 1049C44.9374 1043.8 44.4474 1037.43 44.4474 1031.68C44.4474 1027.72 45.1274 1023.7 45.5374 1019.71C46.0474 1019.35 46.5074 1018.92 46.8774 1018.44C54.3174 1020.79 62.0374 1022.44 69.5974 1024.04C81.9074 1026.66 94.3974 1028.78 106.857 1030.53ZM92.9494 938.065C93.0854 945.708 95.2004 952.651 99.3154 959.086C102.099 963.441 95.1724 967.448 92.4074 963.124C87.5634 955.547 85.1094 947.042 84.9494 938.065C84.8574 932.906 92.8574 932.923 92.9494 938.065ZM725.077 1021.45C728.416 1021.63 731.776 1021.75 735.125 1021.93C738.079 1024.45 742.169 1025.75 745.904 1024.94C746.033 1025.27 746.15 1025.63 746.257 1026.05C746.917 1028.62 747.247 1031.38 747.627 1034C748.007 1036.58 748.297 1039.18 748.497 1041.78C748.597 1043.09 749.227 1046.05 748.427 1047.19C747.707 1048.22 746.117 1048.13 745.017 1048.26C742.057 1048.58 739.057 1048.73 736.077 1048.98C730.447 1049.47 724.817 1049.96 719.197 1050.45C713.687 1050.93 707.637 1050.78 702.247 1052.23C701.327 1041.42 700.487 1030.61 699.707 1019.79C708.057 1021.02 716.787 1020.99 725.077 1021.45ZM24.9574 1003.52C28.3174 1010.01 31.4174 1016.39 37.8474 1020.29C38.6874 1020.79 39.6274 1021.06 40.5874 1021.13C39.8674 1024.22 39.4174 1027.38 39.0174 1030.3C38.1374 1036.73 37.9474 1043.38 39.5574 1049.72C41.1274 1055.89 43.7274 1061.4 48.8274 1065.35C51.1974 1067.19 53.7874 1068.59 56.5074 1069.7C56.0474 1070.99 55.7774 1072.27 55.9174 1073.68C55.2674 1076.95 54.8374 1080.28 54.3674 1083.47C53.3374 1090.55 52.3074 1097.64 51.4974 1104.76C49.8774 1118.92 48.6074 1133.08 47.5374 1147.29C46.4674 1161.46 45.6974 1175.65 45.0574 1189.85C44.7274 1197.11 44.4374 1204.37 44.1674 1211.64C43.8974 1219.11 42.6874 1226.75 45.9874 1233.68C48.6474 1239.28 57.6374 1238.96 60.3974 1233.68C63.8974 1226.97 62.8674 1219 62.9574 1211.64C63.0474 1204.71 63.1674 1197.77 63.3174 1190.84C63.6174 1176.65 64.0574 1162.47 64.4074 1148.28C64.7474 1134.43 65.1674 1120.59 65.4474 1106.74C65.5874 1099.49 65.5974 1092.24 65.6374 1084.99C65.6574 1080.97 65.8274 1076.68 65.5274 1072.49C68.0274 1073.08 70.5474 1073.58 73.0374 1074.09C92.0474 1077.99 111.257 1080.83 130.587 1082.59C140.297 1083.47 150.037 1084.09 159.777 1084.44C166.937 1084.7 174.357 1085.2 181.627 1084.93C181.057 1102.29 180.797 1119.66 180.827 1137.03C180.847 1149.56 181.017 1162.09 181.327 1174.62C181.497 1181.21 181.637 1187.8 181.837 1194.39C181.927 1197.35 181.927 1200.34 182.127 1203.29C182.187 1204.21 182.317 1205.1 182.487 1205.98C181.827 1207.85 181.277 1209.7 180.827 1211.43C178.627 1219.83 178.627 1227.9 179.607 1236.46C180.447 1243.72 186.557 1250.45 194.627 1247.9C195.937 1247.49 197.247 1247.06 198.547 1246.62C210.427 1247.97 222.377 1248.28 234.427 1248.51C252.037 1248.85 269.657 1248.96 287.277 1249.05C321.837 1249.23 356.407 1249.32 390.977 1249.42C460.447 1249.62 529.917 1249.81 599.387 1250.01C618.667 1250.07 637.947 1250.12 657.227 1250.18C667.207 1250.21 677.167 1250.22 687.137 1250.6C691.787 1250.78 696.447 1251.03 701.097 1251.1C706.487 1251.19 711.257 1249.64 716.407 1248.23C719.317 1247.42 720.467 1244.5 719.847 1242.03C724.507 1243.14 730.157 1240.78 731.747 1235.53C732.907 1231.72 732.477 1227.59 730.747 1224.06V1224.05C727.407 1202.96 723.167 1181.97 719.837 1160.87C716.187 1137.76 712.677 1114.6 709.587 1091.4C707.267 1073.88 705.357 1086.3 703.707 1068.7C710.897 1069.26 719.027 1067.07 726.147 1066.14C731.257 1065.48 736.407 1064.95 741.527 1064.25C741.147 1069.41 741.257 1074.67 741.117 1079.62C740.847 1089.45 740.967 1099.24 741.217 1109.07C741.697 1128.04 742.767 1117 744.477 1135.89C746.207 1154.92 748.327 1173.88 750.897 1192.82C752.217 1202.57 753.627 1212.31 755.117 1222.04C755.807 1226.58 756.517 1231.11 757.247 1235.65C758.117 1241 758.397 1246.07 762.407 1250.09C765.457 1253.14 771.687 1252.88 773.707 1248.63C776.267 1243.26 775.107 1238.66 774.157 1233.02C773.387 1228.49 772.647 1223.96 771.917 1219.43C770.357 1209.72 768.877 1200 767.487 1190.27C764.807 1171.52 762.277 1152.74 760.017 1133.94C757.737 1114.99 755.377 1126.06 753.137 1107.11C752.007 1097.55 750.877 1088.01 749.557 1078.48C748.887 1073.58 748.467 1068.36 747.587 1063.31C747.867 1063.27 748.147 1063.22 748.427 1063.17C754.507 1062.06 759.697 1058.63 761.227 1052.37C762.687 1046.38 760.947 1039.49 759.717 1033.61C758.667 1028.6 757.718 1022.21 754.494 1017.92C765.854 1003.45 773.243 985.238 777.956 967.733C783.09 948.662 785.239 928.755 785.694 909.047C786.222 886.215 784.501 863.515 780.588 841.191C780.496 836.46 780.278 831.731 779.927 827.007C776.487 780.648 762.047 725.778 716.267 704.117C716.087 704.028 715.897 703.947 715.707 703.867C712.117 699.577 707.637 695.717 704.017 692.108C697.607 685.707 690.907 679.587 683.807 673.947C669.747 662.778 654.327 653.858 638.297 645.827C622.087 637.697 605.637 630.068 589.797 621.197C575.997 613.457 563.577 604.137 551.787 593.617C538.537 581.787 529.107 565.837 525.407 548.427C525.217 547.518 523.867 547.768 523.847 548.637C522.877 580.547 544.417 608.747 569.207 626.587C598.847 647.898 634.637 657.987 664.697 678.648C672.167 683.778 679.157 689.568 685.807 695.717C675.617 694.677 665.247 695.337 655.697 698.157C651.937 697.927 648.157 697.858 644.387 697.677C635.767 697.247 627.137 696.848 618.507 696.467C600.917 695.688 583.317 694.978 565.717 694.358C531.187 693.137 496.647 692.217 462.107 691.608C392.697 690.377 323.197 690.137 253.797 692.148C234.977 692.688 136.017 688.938 126.857 689.997C140.327 678.337 155.107 668.818 171.357 660.987C191.687 651.217 212.697 644.697 234.407 638.737C279.117 626.467 325.547 614.637 361.327 583.467C370.217 575.717 378.117 566.808 384.587 556.938C390.767 547.518 397.637 535.457 397.807 523.967C397.927 515.808 386.567 512.837 382.527 519.827C380.017 524.157 378.777 528.907 376.727 533.447C374.687 537.947 372.267 542.287 369.577 546.438C364.287 554.598 357.727 561.877 350.587 568.447C335.367 582.467 316.927 592.737 297.847 600.507C254.527 618.137 207.147 625.577 166.097 648.818C148.137 658.987 130.947 673.018 120.157 690.917C118.417 691.188 116.687 691.507 114.957 691.867C116.247 690.237 117.547 688.608 118.857 686.987C119.717 685.927 118.387 684.528 117.337 685.467C96.9274 703.627 78.1274 723.237 61.0874 744.617C44.7874 765.077 29.5874 786.518 18.8274 810.478C-0.512573 853.518 -4.77257 902.747 5.21743 948.768C7.93743 961.307 11.7774 973.587 16.6674 985.457C19.1874 991.587 21.9174 997.627 24.9574 1003.52Z" fill="black"/>
</g>
<g id="head/mono/Long Curly">
<path id="&#240;&#159;&#142;&#168; Background_2" fill-rule="evenodd" clip-rule="evenodd" d="M578.408 188.718C512.638 135.262 407.241 117.905 336.838 171.836C282.134 222.449 259.496 366.275 269.177 438.547C271.869 484.902 307.284 537.443 359.271 522.782C368.099 521.913 376.671 518.529 385.58 517.82C396.237 516.593 406.975 516.572 417.611 518.075C440.787 521.353 461.332 533.658 483.826 539.411C525.565 550.085 572.136 542.905 608.064 518.861C726.791 440.803 673.011 264.268 578.408 188.718Z" fill="white"/>
<path id="Vector 6" d="M490.5 555L353.5 539.5L364 173L664.5 175.5L660 403L622 510.5L538 539.5L490.5 555Z" fill="#C68642"/>
<path id="Vector 14" d="M584 427.5L487.5 423.5L468 432L448 461L459 486L512 494.5C537.833 490.333 591.3 481.7 598.5 480.5C605.7 479.3 610.833 467 612.5 461L608.5 440.5L584 427.5Z" fill="white" stroke="black"/>
<path id="&#240;&#159;&#150;&#141; Ink_2" fill-rule="evenodd" clip-rule="evenodd" d="M569.649 540.696C570.87 540.275 572.089 539.836 573.299 539.386C573.379 539.666 573.509 539.935 573.66 540.196C573.83 540.616 574 541.025 574.189 541.435C572.67 541.446 571.149 541.175 569.649 540.696ZM567.21 22.6747C566.67 21.4657 566.049 20.3057 565.349 19.1847C567.049 19.7357 568.75 20.4957 570.29 21.4757C569.25 21.8257 568.229 22.2257 567.21 22.6747ZM307.42 180.836C307.35 180.824 307.281 180.814 307.212 180.802C308.104 178.427 309.693 176.185 311.448 174.566C311.763 174.275 312.104 174.006 312.434 173.728C310.571 175.947 308.881 178.314 307.42 180.836ZM782.769 429.185C781.889 420.845 780.769 412.536 779.319 404.275C777.929 396.366 776.759 387.906 772.729 380.886C768.729 373.896 764.719 367.105 759.96 360.956C760.639 357.816 761.54 354.866 762.319 352.486C766.819 338.786 771.25 321.386 761.899 308.656C759.729 305.706 757.08 303.446 754.049 301.406C752.759 300.536 750.62 299.746 749.629 298.546C748.929 297.696 749.17 298.156 749.139 297.736C748.969 295.476 754.269 290.706 755.509 288.916C757.83 285.605 759.559 281.876 760.879 278.066C766.099 262.986 762.549 246.376 759.41 231.265C757.75 223.256 755.92 215.226 755.319 207.046C754.759 199.366 755.809 191.866 756.429 184.226C757.03 176.685 756.87 168.906 753.639 161.925C752.059 158.525 749.67 155.525 746.759 153.185C743.92 150.896 740.379 149.566 737.61 147.286C734.849 145.015 735.639 141.946 736.36 138.806C737.349 134.546 738.599 130.316 738.719 125.916C738.939 118.246 735.809 110.775 730.92 104.976C725.879 98.9857 718.679 94.9347 710.899 94.0247C707.339 93.6047 703.839 94.3157 700.299 94.0657C696.799 93.8257 696.04 92.0757 695.379 88.8757C693.86 81.5457 694.479 74.3057 690.87 67.4657C687.67 61.3857 681.979 57.2647 675.689 54.8357C664.16 50.3757 650.75 51.2957 638.589 53.9247C631.41 32.8057 609 18.9557 586.95 18.7857C583.509 12.9457 577.679 8.58572 571.03 6.02472C560.03 1.77472 548.379 4.25572 536.92 4.25572H536.87C535.719 4.18472 534.569 4.15572 533.42 4.16572C532.339 4.10472 531.259 4.01472 530.179 3.89572C517.139 2.35472 504.239 -2.98528 491.319 2.24572C485.559 4.57572 480.979 8.16572 478.08 12.7457C473.71 13.9347 469.399 15.2957 465.17 16.8757C446.839 17.3547 428.679 27.1847 419.41 43.1157C406.36 41.6357 392.2 44.1457 383.569 54.8057C381.321 57.5797 379.58 60.8387 378.426 64.2987C369.626 67.1447 361.483 72.2157 356.154 79.8537C351.291 86.8237 350.357 95.8357 353.646 103.318C345.79 109.009 339.651 117.156 336.694 126.776C334.897 132.621 334.63 138.66 335.786 144.413C327.743 146.197 320.05 149.504 313.234 154.467C306.091 159.666 297.17 167.941 296.7 177.465C296.665 178.164 296.692 178.863 296.748 179.56C281.023 178.455 264.989 181.119 254.36 193.726C246.379 203.185 242.91 215.366 245.04 226.456C226.33 230.256 208.639 240.036 196.299 254.496C187.33 265.006 179.36 278.366 179.839 292.675C179.989 296.986 181 301.326 182.75 305.336V305.345C182 306.756 181.229 308.326 180.489 309.996C168.899 318.105 160.479 330.816 155.739 344.826C151.91 356.175 149.5 370.916 153.589 382.466C154.21 384.226 155 385.886 155.92 387.425C155.149 388.246 154.42 389.066 153.71 389.896C145.899 399.025 137.989 410.525 138.53 423.095C138.75 428.156 140.629 433.246 143.7 437.425C132.899 448.376 124.2 462.196 125.059 477.626C125.799 491.056 133.17 504.696 144.719 511.146C142.79 521.496 145.37 532.416 153.429 540.496C157.45 544.536 162.189 547.196 167.21 548.616C168.33 560.806 179.149 570.616 190.639 573.435C192.78 573.966 194.92 574.286 197.049 574.435C207.389 579.506 219.719 578.925 230.269 574.275C233.379 578.226 237.429 581.446 242.149 583.756C244.059 584.696 246.08 585.476 248.189 586.105C263.089 590.515 278.37 584.536 291.399 577.556C291.819 577.336 292.589 577.056 293.269 576.746C295.069 578.756 298.349 580.746 300.059 581.726C305.86 585.056 312.95 586.605 319.61 586.166C327.42 585.646 334.309 583.066 340.689 579.396C341.62 579.556 342.559 579.646 343.5 579.696C349.5 580.015 354.849 578.116 359.66 575.116C362.839 575.536 366.099 575.496 369.399 574.916C376.67 576.765 383.75 573.826 389.439 569.156C391.96 567.086 394.089 564.656 396.37 562.336C398.739 559.925 400.54 559.366 403.309 557.746C409.86 553.916 410.649 544.206 407.809 537.185C408.349 535.956 408.66 534.586 408.66 533.066C408.639 519.806 402.53 507.646 395.03 497.036C391.679 492.306 388.04 487.675 384.049 483.476C380.839 480.105 376.33 474.636 371.58 473.265C371.29 473.056 370.989 472.845 370.689 472.646C371.61 469.425 372.149 466.146 371.92 462.796C371.679 459.355 370.569 456.095 368.79 453.316C374.759 441.746 377.28 429.056 376.08 415.816C380.939 408.925 384.62 401.316 386.519 392.976C387.689 387.816 388.36 382.386 388.269 377.095C388.229 374.556 387.299 371.345 387.28 368.716C387.42 369.546 388.5 366.446 388.92 365.675C393.739 356.726 399.929 349.746 400.96 339.196C401.559 333.025 400.099 326.206 396.399 321.146C398.769 311.806 398.739 301.775 395.009 292.866C394.009 290.486 392.86 288.156 391.54 285.946C392.149 284.086 392.71 282.206 393.429 280.515C393.71 279.845 393.989 279.166 394.269 278.486C396.979 276.095 399.5 273.486 401.62 270.925C406.319 265.256 409.91 258.756 410.36 251.265C410.58 247.515 409.7 243.925 408.61 240.366C408.129 238.756 407.839 236.966 407.269 235.396C406.95 234.525 406.179 233.636 405.91 232.816C405.849 232.636 405.799 232.486 405.759 232.366C405.799 232.246 405.83 231.996 405.83 231.525C405.839 227.935 406.309 224.425 406.33 220.966C409.62 224.286 413.58 226.765 418.08 228.216C427.149 231.126 436.61 229.806 444.639 225.316C453.28 231.236 462.989 236.595 473.17 238.746C479.219 240.025 485.28 239.496 491.349 240.286C497.379 241.076 503.21 243.706 508.889 245.756C521.53 250.326 534.139 255.015 546.819 259.466C557.059 263.056 568.139 265.906 578.86 263.886C581.87 268.525 585.78 272.446 590.79 275.326C594.379 277.376 598.319 278.765 602.389 279.456C605.989 280.066 610.21 279.826 613.129 282.296C615.979 284.696 617.759 288.275 620.319 290.976C623.17 293.996 626.689 296.616 630.379 298.496C633.339 300.006 636.36 301.095 639.429 301.806C639.16 308.636 638.899 315.456 638.819 322.296C638.67 337.156 638.729 352.015 638.53 366.876C638.33 381.685 637.86 396.496 637.08 411.286C636.339 425.166 635.299 439.095 631.989 452.636C621.009 497.566 579.879 529.736 533.839 531.376C520.17 531.866 506.639 529.946 493.569 525.925C480.03 521.756 467.939 513.175 454.059 510.536C450.429 509.855 447.009 513.506 449.089 517.015C452.67 523.046 457.019 526.726 462.969 530.355C469.2 534.146 476.139 536.956 482.989 539.416C495.589 543.935 508.92 546.556 522.29 547.286C532.489 547.845 542.729 547.146 552.719 545.226C553.42 547.376 554.66 549.466 555.599 551.456C555.739 551.746 556.21 551.546 556.12 551.246C555.969 550.746 555.87 550.306 555.83 549.946C559.189 554.326 564.379 557.355 569.71 558.826C573.469 559.866 577.46 560.185 581.33 559.746C582.58 559.605 583.769 559.396 584.95 559.136C588.889 562.586 593.929 564.886 598.989 566.036C598.12 571.316 600.729 577.076 606.78 578.576C609.319 579.206 611.759 579.216 614.2 578.986C616.17 579.906 618.29 580.626 620.54 581.116C623.469 581.756 626.969 580.935 629.179 578.816C630.389 579.666 631.519 580.256 632.639 581.605C637.25 587.166 647.189 582.736 647.629 576.306C649.089 576.306 650.559 576.326 652.03 576.376C652.379 576.536 652.729 576.696 653.089 576.866C659.519 579.855 666.179 582.466 673.29 580.116C674.599 579.685 675.799 579.136 676.889 578.496C681.899 578.946 686.839 578.956 691.92 577.316C694.92 576.345 697.739 574.806 700.089 572.786C707.929 575.086 716.2 576.126 724 573.275C729.839 571.146 734.54 567.786 737.849 563.355C742.91 563.536 748.049 562.316 752.679 559.906C760.599 555.806 766.149 548.015 770.019 540.206C778.54 522.976 783.58 504.466 785.559 485.376C787.509 466.576 784.729 447.876 782.769 429.185Z" fill="black"/>
</g>
<g id="face/Smile Big">
<path id="&#240;&#159;&#150;&#141; Ink_3" fill-rule="evenodd" clip-rule="evenodd" d="M484.347 415.477C501.489 413.397 518.105 418.645 534.863 421.29C543.711 422.686 552.57 423.728 561.523 424.116C563.324 424.194 565.127 424.24 566.929 424.277C567.096 422.691 567.984 421.234 569.908 420.361C573.852 418.574 577.008 417.768 581.338 417.94C585.301 418.097 589.278 418.504 593.181 419.218C600.268 420.518 607.386 423.466 612.57 428.589C624.567 440.442 622.741 459.481 613.471 472.391C594.319 499.069 559.364 500.307 529.426 499.959L526.663 499.923C499.404 499.533 460.404 503.597 448.02 472.584C443.466 461.179 444.098 447.96 449.674 437.021C456.325 423.974 470.325 417.179 484.347 415.477ZM569.495 459.895L569.251 459.905C556.683 460.39 544.117 460.73 531.542 460.953C531.918 464.182 532.302 467.412 532.741 470.635C533.086 473.17 533.455 475.703 533.839 478.233C534.002 479.304 534.598 480.967 534.43 482.028L534.369 482.448C535.014 482.74 535.6 483.21 536.036 483.893C536.188 484.129 536.298 484.367 536.407 484.604C546.17 484.681 556.677 484.492 566.629 482.717L566.649 482.501C566.83 481.229 567.359 480.373 568.061 479.787C568.761 475.732 568.697 471.412 568.967 467.389C569.136 464.89 569.318 462.393 569.495 459.895ZM521.938 461.124C512.879 461.278 503.816 461.397 494.759 461.286L490.648 461.223C491.516 465.881 492.461 470.523 493.246 475.212C494.066 480.099 489.764 483.206 486.041 483.081C486.459 483.149 486.876 483.22 487.294 483.279C498.926 484.924 511.004 484.488 522.809 484.475C522.174 480.768 522.431 476.585 522.336 473.491L522.318 473.012C522.137 469.047 522.01 465.086 521.938 461.124ZM460.406 460.269C460.72 462.691 461.332 465.062 462.247 467.269C466.114 476.593 474.979 480.944 484.358 482.777C482.731 482.215 481.439 480.865 481.112 478.552C480.299 472.802 480.007 466.956 479.985 461.117C473.448 461.056 466.867 460.917 460.406 460.269ZM603.585 458.278C598.931 459.376 593.522 458.873 588.956 459.08C584.678 459.275 580.399 459.444 576.121 459.617C576.322 462.538 576.519 465.457 576.733 468.376C577.008 472.148 577.034 476.135 577.756 479.891C586.366 476.953 594.08 472.241 599.868 464.706C601.31 462.829 602.601 460.626 603.585 458.278ZM482.38 430.776C474.632 432.61 467.3 436.485 463.36 443.574C461.021 447.781 459.992 452.767 460.19 457.68C466.737 456.918 473.398 456.629 480.027 456.39C480.049 455.196 480.077 454.004 480.113 452.814L480.215 449.765C480.396 443.948 480.486 436.644 482.38 430.776ZM522.479 431.485L519.069 431.102C509.596 430.023 500.128 428.89 490.655 429.539C489.284 429.634 487.892 429.783 486.497 429.988C488.171 436.03 488.031 443.126 488.73 449.107C489 451.42 489.342 453.714 489.72 455.999L491.363 455.922C501.529 455.371 511.704 455.032 521.877 454.628C521.876 452.718 521.886 450.807 521.917 448.895L521.955 446.983C522.07 442.1 521.755 436.599 522.479 431.485ZM570.049 430.71C560.127 432.311 549.873 432.652 540.127 432.664C536.235 432.669 532.344 432.43 528.456 432.085C528.709 434.155 528.841 436.25 529.031 438.292C529.415 442.417 529.854 446.537 530.331 450.653L530.757 454.254C543.261 453.687 555.764 453.074 568.265 452.439L570.029 452.345L570.523 445.424C570.86 440.809 571.23 436.195 571.753 431.601L571.361 431.459C570.9 431.27 570.463 431.009 570.049 430.71ZM574.358 432.428C574.904 438.953 575.207 445.505 575.609 452.042L583.85 451.602C585.224 451.527 586.597 451.45 587.97 451.371C593.311 451.063 600.173 449.446 605.453 450.955C605.856 446.155 604.484 441.479 600.152 438.255C592.547 432.591 582.864 434.608 574.358 432.428ZM546.201 374.094C558.473 367.066 589.264 359.883 591.214 381.968C592.11 392.131 584.555 400.552 575.732 404.31L575.401 404.448C567.126 407.85 552.459 411.692 545.298 404.315C539.338 398.175 547.243 387.166 554.649 392.196C558.455 394.78 566.466 392.876 570.713 391.647L570.979 391.569C575.562 390.222 581.672 385.911 579.777 380.268C578.1 375.276 570.964 374.364 566.495 374.202C559.824 373.963 553.332 375.512 546.722 376.016C545.675 376.096 545.352 374.58 546.201 374.094ZM597.036 338.582C613.692 337.802 624.053 355.988 620.223 370.889C619.561 373.46 616.685 375.984 613.909 375.695L613.209 375.63C612.854 375.596 612.497 375.551 612.169 375.461C609.533 374.731 607.17 371.989 607.362 369.147L607.413 368.318C607.801 361.279 607.038 353.169 598.673 351.465C591.578 350.019 587.617 356.848 587.533 363.134C587.517 364.25 586.263 365.029 585.276 364.429C580.147 361.308 579.259 355.099 581.218 349.752C583.701 342.977 589.915 338.915 597.036 338.582ZM473.433 342.482C485.554 338.438 498.631 344.899 504.5 355.615C506.559 356.211 508.615 357.798 508.329 360.228C507.916 363.724 507.294 365.928 504.87 368.579C501.078 372.726 493.977 370.606 492.402 365.5L492.335 365.27C490.545 358.671 483.281 354.317 476.664 356.627C468.934 359.325 469.158 367.489 463.736 372.245C463.099 372.804 462.335 372.893 461.571 372.524C455.812 369.741 456.847 361.365 458.9 356.571C461.593 350.28 466.827 344.685 473.433 342.482ZM456.925 305.675C466.747 295.653 492.359 285.955 499.078 304.462C500.358 307.987 497.633 312.74 493.963 313.471C487.953 314.667 482.621 312.058 476.651 312.526C471.818 312.907 466.777 314.522 462.913 317.516C452.211 325.808 449.857 339.833 442.4 350.387C442.037 350.901 441.332 350.685 441.265 350.079C439.567 334.714 446.167 316.651 456.925 305.675ZM585.02 295.809C591.538 293.507 598.919 293.704 605.471 295.746C612.071 297.804 618.13 301.712 622.798 306.818C624.916 309.136 626.876 311.694 628.448 314.417C629.283 315.86 630.161 318.841 631.11 320.616C636.245 323.58 638.439 330.335 633.843 335.141L633.635 335.352L633.02 335.962C630.549 338.408 626.823 339.468 623.45 338.491C615.902 336.307 614.985 330.362 612.372 324.052C610.646 319.884 607.689 316.196 604.104 313.487C595.631 307.087 581.738 305.048 571.537 308.064C570.994 308.225 570.356 307.533 570.743 307.031C572.676 304.527 573.79 302.472 576.378 300.452C579.005 298.402 581.872 296.921 585.02 295.809Z" fill="black"/>
</g>
</g>
</svg>
